<?xml version="1.0" encoding="utf-8" ?><svg xmlns="http://www.w3.org/2000/svg" xmlns:xlink="http://www.w3.org/1999/xlink" width="5163" height="2905" viewBox="0 0 5163 2905"><path fill="white" transform="matrix(2.83681 0 0 2.83691 0 -0.000244141)" d="M0 0L1820 0L1820 1024L0 1024L0 0Z"/><path fill="#2F2B47" transform="matrix(2.83681 0 0 2.83691 0 -0.000244141)" d="M198.161 59.6803C202.773 59.2899 208.575 59.2684 213.141 60.3021C299.677 79.8913 382.986 132.952 435.041 205.104C444.413 218.094 452.593 231.569 461.879 244.505C494.128 220.884 516.406 199.221 536.418 164.204C546.948 168.203 580.379 180.373 590.477 181.816C649.06 190.186 725.63 173.501 779.355 150.384C793.23 153.647 817.852 159.893 830.93 164.336C839.36 195.136 846.742 226.623 854.733 257.54C874.703 334.81 893.385 414.724 896.488 494.781C902.135 640.453 862.152 808.855 774.419 927.055L1096.4 927.25C1111.73 917.329 1134.33 914.132 1148.07 906.578C1151.23 900.555 1139.76 893.002 1138.43 886.213C1135.17 869.605 1133.16 852.538 1130.45 835.813C1127.64 818.437 1117.83 773.053 1119.57 759.578C1122.46 737.215 1166.71 664.493 1181.04 642.774C1176.96 643.426 1172.77 643.475 1168.63 643.624C1171.68 598.567 1167.26 574.667 1146.53 533.859C1134.44 543.307 1123.99 560.385 1106.38 559.235C1069.18 556.504 1031.87 543.174 996.07 533.175C977.644 528.029 953.873 533.373 953.308 506.413C945.413 505.028 931.683 503.857 926.704 497.694C925.615 493.021 927.045 494.169 927.693 489.283C919.582 487.416 903.546 492.301 901.03 481.715C903.143 474.225 914.416 473.128 920.922 473.13C929.309 473.134 943.955 472.14 952.009 474.514C984.05 484.005 1017.14 486.816 1050.35 488.945C1062.36 489.715 1070.78 488.67 1079.96 480.545C1087.13 474.204 1098.62 470.605 1105.83 464.286C1109.57 461.008 1120.8 448.884 1121.3 444.379C1119.71 442.387 1112.85 442.821 1109.51 441.895C1101.32 439.635 1095.48 431.137 1091 424.68C1073.23 417.961 1058.17 401.957 1063.38 380.119C1064.77 374.273 1087.73 362.718 1093.93 360.173C1110.1 353.53 1128.91 355.197 1142.69 366.522C1147.17 369.986 1153.58 374.677 1158.75 377.015L1159.45 377.326C1163.86 379.326 1168.58 378.83 1173.48 378.734C1171.37 381.953 1164.26 390.101 1165.19 393.018C1167.66 400.706 1168.09 404.237 1167.69 412.66C1193.73 411.012 1211.26 418.95 1230.61 436.195C1251.34 454.673 1270.72 480.386 1285.06 504.354C1298.79 527.311 1311.49 554.991 1319.05 580.795C1322.68 594.935 1323.57 609.606 1325.21 624.058C1329.79 664.497 1329.29 705.324 1331.84 745.812C1356.72 770.688 1386.57 796.059 1413.39 819.341L1428.31 831.815L1423.32 840.384C1424.64 841.869 1428.41 846.222 1429.9 846.833C1444.19 852.697 1455.81 853.089 1464.98 867.041C1453.47 891.271 1436.05 909.577 1416.45 927.273L1566.44 927.456C1580.85 927.466 1595.25 927.515 1609.65 927.403C1613.17 927.376 1618.28 926.472 1620.23 929.649L1618.77 931.983C1615.06 933.043 1597.27 932.316 1592.12 932.321L1517.25 932.307L1188.28 931.76L1188.16 943.276C1169.03 949.695 1071.36 980.781 1090.62 932.486C1047.99 931.725 1003.06 932.397 960.199 932.383L770.555 932.535C766.466 938.101 762.696 943.746 757.57 948.352C734.774 948.957 719.424 947.978 697.214 941.031C690.801 939.025 678.096 933.184 672.324 932.956C653.201 932.203 633.085 932.451 613.943 932.441L497.135 932.676C470.896 932.756 429.314 933.107 401.973 932.516C401.246 931.911 400.625 931.393 400.108 930.963L400 929.037C400.429 928.65 400.858 928.264 401.286 927.877C471.334 927.057 595.892 927.806 660.103 927.205C629.518 912.288 610.54 900.59 581.791 881.91C416.328 889.786 271.591 792.556 190.066 650.178C184.819 641.014 168.893 610.527 181.561 603.192C200.832 592.036 247.272 597.369 269.479 598.512C233.741 580.08 190.51 542.135 163.296 511.351C146.182 490.263 115.619 454.6 112.396 428.265C109.917 408.012 168.084 413.241 180.672 414.26C148.245 371.067 125.592 310.11 111.054 258.192C108.204 248.015 96.9941 206.99 120.641 211.509C133.004 213.872 151.544 224.15 162.367 230.958C208.978 260.279 252.269 296.475 287.984 338.493C297.423 349.601 306.172 362.03 314.753 373.727C309.929 355.065 288.992 330.2 278.656 311.969C252.296 265.477 226.555 219.059 207.338 169.053C198.892 147.074 178.795 88.135 188.009 68.2334C190.234 63.4277 193.311 61.4176 198.161 59.6803Z"/><path fill="#F8CC8A" transform="matrix(2.83681 0 0 2.83691 0 -0.000244141)" d="M825.675 168.901L826.992 170.293C858.165 292.834 895.666 417.364 891.277 546.153C886.577 684.084 843.09 831.578 756.548 941.344C752.668 946.264 733.402 935.965 727.882 933.5C663.265 904.639 603.883 855.511 557.778 802.169C470.637 700.546 435.272 591.406 399.205 465.947L360.351 331.939C436.249 308.103 542.373 254.672 586.123 187.284C659.102 207.319 703.195 204.163 775.698 184.82C791.34 180.647 811.113 175.455 825.675 168.901Z"/><path fill="#2F2B47" transform="matrix(2.83681 0 0 2.83691 0 -0.000244141)" d="M799.23 220.515C800.14 220.815 800.841 220.848 801.18 221.851C807.747 241.271 814.448 269.329 819.653 288.592C855.238 420.262 871.097 545.172 838.688 679.821C823.173 744.284 799.649 808.747 763.472 865.385C757.83 874.217 749.216 886.151 740.36 891.778C690.809 881.96 615.562 808.145 582.72 769.741C484.44 651.308 448.546 504.009 413.061 357.6C424.526 351.28 444.476 345.076 457.673 338.473C512.032 311.275 565.22 281.169 601.043 230.929C668.444 249.507 733.325 240.254 799.23 220.515Z"/><path fill="white" transform="matrix(2.83681 0 0 2.83691 0 -0.000244141)" d="M796.844 226.801C799.035 229.929 807.722 264.42 809.533 271.202C834.951 366.352 855.855 460.474 850.125 559.626C844.626 654.783 821.271 748.319 776.229 832.602C767.187 849.448 756.746 868.021 743.774 882.112C736.11 890.437 712.409 874.958 704.939 870.387C659.689 842.697 621.44 805.736 587.023 765.672C574.343 751.774 558.665 729.33 548.557 713.776C479.599 607.662 449.838 481.558 418.945 360.368C487.913 333.163 556.909 296.82 603.347 237.4C665.903 253.149 735.733 246.344 796.844 226.801Z"/><path fill="#2F2B47" transform="matrix(2.83681 0 0 2.83691 0 -0.000244141)" d="M650.859 371.809C667.426 369.862 687.309 374.981 701.203 384.047C729.244 402.345 730.89 439.637 736.954 469.378C764.996 482.572 765.044 480.138 769.166 511.067C774.031 547.562 780.364 584.675 784.462 621.25C786.056 635.479 769.353 644.167 758.416 648.155C735.597 657.605 713.051 667.808 690.21 677.181C674.589 684.179 657.808 690.631 641.789 696.698C631.787 694.824 610.693 687.997 602.286 681.848C600.317 680.409 597.829 663.798 597.432 660.469C592.267 617.161 585.057 574.058 579.753 530.783C579.145 525.821 583.037 521.453 586.085 518.112C582.452 482.066 570.862 453.817 588.936 419.457C602.591 393.499 621.245 376.198 650.859 371.809Z"/><path fill="#EF8E80" transform="matrix(2.83681 0 0 2.83691 0 -0.000244141)" d="M754.362 484.506C756.755 486.415 759.036 488.151 760.043 491.182C764.101 503.392 764.781 518.927 766.631 531.779L779.555 624.289C777.903 627.921 775.503 633.025 772.218 635.379C761.728 642.894 741.871 649.445 729.625 654.641C700.481 667.007 671.534 679.688 642.021 691.167C640.704 691.034 639.345 690.944 638.113 690.429C636.18 689.622 635.591 688.616 634.85 686.658C630.861 676.126 630.941 661.447 629.303 650.159L620.948 590.758C619.349 579.536 617.253 568.19 616.169 556.916C615.935 554.49 615.554 551.087 616.663 548.843C625.889 530.191 732.072 493.017 754.362 484.506Z"/><path fill="#2F2B47" transform="matrix(2.83681 0 0 2.83691 0 -0.000244141)" d="M696.106 545.901C701.513 545.372 706.279 545.668 711.015 548.605C715.414 551.333 718.115 555.745 719.208 560.76C721.451 571.054 717.487 578.94 712.026 587.229C713.264 597.612 715.566 608.063 717.272 618.401L699.722 626.109C698.634 626.664 697.429 627.368 696.256 627.737C693.975 628.456 693.463 628.256 691.431 627.246C686.779 620.727 686.699 604.632 684.927 596.216C679.893 593.482 676.712 590.465 674.437 585.133C671.719 578.762 672.16 571.54 674.758 565.2C678.877 555.147 686.413 549.836 696.106 545.901Z"/><path fill="#8E90B2" transform="matrix(2.83681 0 0 2.83691 0 -0.000244141)" d="M696.92 551.281C701.24 550.936 705.664 551.394 709.168 554.195C712.271 556.675 713.787 559.997 714.23 563.865C715.231 572.612 711.012 579.178 705.742 585.653C708.097 595.436 709.717 605.439 711.559 615.331L699.703 620.585C698.368 621.25 697.56 621.453 696.072 621.557C691.593 616.474 691.098 599.406 690.05 592.484C685.166 590.276 681.254 588.367 679.056 583.142C676.954 578.143 677.601 572.668 679.602 567.75C682.97 559.472 688.903 554.651 696.92 551.281Z"/><path fill="#EF8E80" transform="matrix(2.83681 0 0 2.83691 0 -0.000244141)" d="M697.815 473.872C698.38 474.334 698.227 474.126 698.572 474.69L699.623 476.398C703.089 482.153 714.244 486.119 720.171 488.849C724.493 487.092 728.843 485.361 733.113 483.483C736.797 481.863 737.22 480.61 738.578 477.099C740.869 476.645 746.517 479.67 748.864 480.623L747.984 480.93C726.922 488.361 706.059 497.142 685.416 505.675C663.953 514.546 638.945 523.067 620.363 537.124C615.566 540.753 612.775 544.064 610.188 549.481C610.533 563.883 613.499 578.735 615.506 593.008L625.905 665.46C626.95 672.925 628.185 680.338 629.504 687.759C623.284 685.381 616.02 683.938 610.254 680.663C607.606 679.159 605.775 677.701 604.997 674.629C601.205 659.643 600.675 642.307 598.477 626.889L590.259 565.669C588.805 555.447 586.405 545.184 585.609 534.893C585.346 531.499 585.083 528.087 586.844 525.034C588.499 526.226 588.919 528.128 590.158 529.665C593.027 533.227 599.587 535.162 603.739 536.92C611.733 535.749 617.978 533.218 624.964 529.375C624.61 521.066 622.976 512.629 621.801 504.392C629.816 500.663 638.371 497.813 646.566 494.475C663.626 487.527 680.632 480.516 697.815 473.872Z"/><path fill="white" transform="matrix(2.83681 0 0 2.83691 0 -0.000244141)" d="M665.65 399.286C668.694 399.086 670.715 400.285 673.123 402.012C692.415 415.839 694.23 446.455 697.736 467.83L642.29 490.156C635.024 492.915 627.925 496.001 620.811 499.126C616.409 473.13 610.97 451.178 626.032 427.373C635.454 412.483 648.383 403.12 665.65 399.286Z"/><path fill="#EF8E80" transform="matrix(2.83681 0 0 2.83691 0 -0.000244141)" d="M669.422 380.737C678.289 380.028 687.697 382.348 695.393 386.762C727.133 404.969 724.487 446.104 732.972 476.881L719.416 482.756C714.026 457.631 715.396 421.794 694.366 403.934C685.853 396.704 674.374 393.466 663.306 394.548C647.466 396.097 635.096 406.681 625.382 418.472C624.27 420.024 623.262 421.636 622.26 423.26C617.104 431.622 612.677 440.513 610.993 450.288C608.281 466.031 615.838 508.542 619.922 525.734C615.1 528.173 610.175 529.881 605.069 531.598C599.712 489.737 587.916 448.603 615.918 412.054C629.183 394.739 647.76 383.532 669.422 380.737Z"/><path fill="#EF8E80" transform="matrix(2.83681 0 0 2.83691 0 -0.000244141)" d="M645.142 377.868C647.7 377.696 650.163 377.378 652.667 378.067C635.192 386.022 621.798 394.363 610.237 410.099C583.763 446.132 593.174 486.183 599.345 527.123C599.074 527.756 598.638 528.038 598.133 528.488L595.901 527.861C594.903 527.02 594.048 526.136 593.603 524.877C590.644 516.508 589.8 505.973 588.528 497.166C584.576 469.809 581.324 446.011 594.475 420.458C605.579 398.883 622.225 385.26 645.142 377.868Z"/><path fill="#EF8E80" transform="matrix(2.83681 0 0 2.83691 0 -0.000244141)" d="M682.502 403.099C684.956 403.634 687.057 404.984 689.057 406.468C707.826 420.386 709.407 457.04 712.84 478.627L704.281 474.484C699.632 447.492 699.135 426.056 682.502 403.099Z"/><path fill="#2F2B47" transform="matrix(2.83681 0 0 2.83691 0 -0.000244141)" d="M466.959 608.059C470.058 607.848 472.796 610.062 473.24 613.137C473.684 616.212 471.684 619.109 468.652 619.784C466.476 620.268 464.212 619.493 462.79 617.777C461.367 616.06 461.025 613.692 461.904 611.643C462.783 609.594 464.735 608.21 466.959 608.059Z"/><path fill="#2F2B47" transform="matrix(2.83681 0 0 2.83691 0 -0.000244141)" d="M422.378 478.946C425.118 477.847 428.239 479.069 429.505 481.736C430.771 484.403 429.745 487.594 427.163 489.024C425.344 490.03 423.116 489.943 421.381 488.798C419.646 487.653 418.69 485.639 418.899 483.571C419.108 481.502 420.449 479.72 422.378 478.946Z"/><path fill="#2F2B47" transform="matrix(2.83681 0 0 2.83691 0 -0.000244141)" d="M813.862 190.564C816.761 189.94 819.622 191.765 820.278 194.658C820.934 197.55 819.141 200.432 816.257 201.12C814.362 201.572 812.371 200.971 811.043 199.546C809.715 198.121 809.255 196.093 809.839 194.234C810.422 192.376 811.959 190.974 813.862 190.564Z"/><path fill="#2F2B47" transform="matrix(2.83681 0 0 2.83691 0 -0.000244141)" d="M810.666 811.934C811.61 811.961 812.695 811.946 813.607 812.199C815.623 812.76 816.105 813.779 817.059 815.45C817.323 818.596 816.093 820.856 814.791 823.629C813.625 823.583 811.959 823.646 810.865 823.248C808.765 822.483 808.421 821.518 807.652 819.628C807.779 816.37 808.948 814.594 810.666 811.934Z"/><path fill="#2F2B47" transform="matrix(2.83681 0 0 2.83691 0 -0.000244141)" d="M745.615 909.772C747.361 908.807 749.506 908.927 751.133 910.081C752.761 911.236 753.583 913.22 753.25 915.188C752.917 917.155 751.487 918.758 749.571 919.313C747.03 920.047 744.343 918.755 743.329 916.311C742.316 913.867 743.3 911.052 745.615 909.772Z"/><path fill="#2F2B47" transform="matrix(2.83681 0 0 2.83691 0 -0.000244141)" d="M496.895 286.833C499.308 285.29 502.516 285.995 504.06 288.408C505.604 290.821 504.901 294.03 502.49 295.576C500.076 297.123 496.865 296.42 495.32 294.004C493.774 291.589 494.479 288.378 496.895 286.833Z"/><path fill="#2F2B47" transform="matrix(2.83681 0 0 2.83691 0 -0.000244141)" d="M527.796 729.516C529.481 728.579 531.547 728.653 533.16 729.711C534.773 730.768 535.665 732.633 535.478 734.553C535.29 736.473 534.053 738.129 532.266 738.854C529.727 739.884 526.824 738.76 525.641 736.288C524.457 733.816 525.402 730.849 527.796 729.516Z"/><path fill="#2F2B47" transform="matrix(2.83681 0 0 2.83691 0 -0.000244141)" d="M589.348 209.482C591.71 208.009 594.816 208.703 596.327 211.041C597.837 213.379 597.193 216.498 594.879 218.045C593.35 219.068 591.388 219.187 589.746 218.357C588.104 217.526 587.037 215.874 586.955 214.036C586.872 212.197 587.787 210.457 589.348 209.482Z"/><path fill="#2F2B47" transform="matrix(2.83681 0 0 2.83691 0 -0.000244141)" d="M870.856 567.382C871.771 567.663 872.816 567.946 873.638 568.442C875.219 569.397 876.193 570.629 876.682 572.388C877.505 575.348 875.759 578.363 874.385 580.881C873.512 580.645 872.61 580.392 871.804 579.972C870.194 579.133 869.008 577.695 868.547 575.937C867.714 572.761 869.375 570.042 870.856 567.382Z"/><path fill="#2F2B47" transform="matrix(2.83681 0 0 2.83691 0 -0.000244141)" d="M384.589 340.145C386.255 339.268 388.27 339.389 389.819 340.457C391.369 341.526 392.197 343.367 391.97 345.236C391.743 347.105 390.498 348.694 388.738 349.36C386.236 350.307 383.429 349.144 382.33 346.704C381.232 344.264 382.222 341.39 384.589 340.145Z"/><path fill="#2F2B47" transform="matrix(2.83681 0 0 2.83691 0 -0.000244141)" d="M851.136 691.861C851.714 691.999 852.301 692.139 852.865 692.329C855.384 693.18 856.079 694.247 857.196 696.471C857.224 699.489 855.875 701.626 854.457 704.171L851.362 703.813C849.738 702.553 848.663 701.856 848.387 699.624C848.018 696.639 849.547 694.207 851.136 691.861Z"/><path fill="#2F2B47" transform="matrix(2.83681 0 0 2.83691 0 -0.000244141)" d="M622.276 836.223C623.953 835.386 625.956 835.548 627.478 836.644C629 837.739 629.789 839.588 629.528 841.445C629.268 843.302 628 844.862 626.235 845.496C623.719 846.399 620.935 845.185 619.885 842.726C618.835 840.267 619.883 837.416 622.276 836.223Z"/><path fill="#2F2B47" transform="matrix(2.83681 0 0 2.83691 0 -0.000244141)" d="M844.851 320.365C848.196 321.068 849.8 321.835 851.619 324.771C852.427 328.079 852.004 328.919 851.039 332.062C846.482 331.934 845.977 331.553 843.626 328.022C843.132 324.364 843.502 323.738 844.851 320.365Z"/><path fill="#2F2B47" transform="matrix(2.83681 0 0 2.83691 0 -0.000244141)" d="M696.254 214.664C698.743 214.173 701.192 215.673 701.885 218.113C702.579 220.553 701.285 223.118 698.911 224.01C697.191 224.655 695.255 224.279 693.902 223.037C692.549 221.794 692.01 219.896 692.507 218.128C693.003 216.359 694.452 215.02 696.254 214.664Z"/><path fill="#2F2B47" transform="matrix(2.83681 0 0 2.83691 0 -0.000244141)" d="M870.177 446.004C872.598 447.321 873.787 448.51 874.858 451.043C875.133 454.227 874.387 455.67 872.81 458.325C871.933 458.128 870.868 457.925 870.094 457.458C868.311 456.382 867.248 454.536 867.078 452.483C866.855 449.776 868.517 447.873 870.177 446.004Z"/><path fill="#8E90B2" transform="matrix(2.83681 0 0 2.83691 0 -0.000244141)" d="M1315.71 599.695C1320.17 612.839 1320.92 641.746 1321.85 656.431C1323.73 685.897 1325.86 715.408 1325.93 744.945C1321.23 751.844 1313.42 757.026 1309.47 764.073C1309.69 766.002 1309.51 766.051 1311.1 767.355C1311.24 767.338 1311.38 767.329 1311.52 767.306C1317.5 766.315 1326 755.328 1329.41 750.456C1338.94 761.739 1350.53 771.64 1361.48 781.531C1381.09 799.245 1401.15 816.441 1421.1 833.768C1413.93 843.762 1406 853.551 1397.8 862.709C1379.31 855.194 1291.52 801.293 1278.1 787.665L1277.65 787.202C1275.34 784.863 1274.41 782.313 1273.48 779.208C1270.47 769.174 1268.97 758.298 1266.98 748.009C1260.73 715.74 1256.58 682.441 1248.06 650.713C1244.69 647.893 1237.36 642.022 1233 642.218C1231.36 643.769 1231.33 643.797 1231.13 646.044C1234.39 649.927 1237.66 650.238 1241.55 652.878C1244.03 654.557 1244.6 658.753 1245.26 661.494C1245.53 662.622 1245.83 663.848 1245.83 665.012C1245.81 670.014 1188.37 752.377 1182.95 756.939C1180.63 758.886 1178.07 758.578 1175.27 758.307C1173.95 758.18 1174.13 758.304 1173.1 758.994C1174.38 761.682 1177.39 763.185 1179.79 764.809C1183.31 806.409 1184.64 848.708 1184.75 890.454C1172.02 893.77 1158.1 892.175 1145.14 891.339C1140.71 869.831 1137.98 847.639 1134.47 825.947C1132.32 812.682 1123.37 770.725 1125.04 759.505C1128.31 737.483 1174.06 663.967 1187.57 642.935C1197.85 642.14 1208.1 641.11 1218.24 639.169C1225.07 637.861 1244.05 631.245 1249.33 632.682C1249.92 634.21 1250.34 635.512 1251.58 636.652C1251.79 636.622 1252 636.597 1252.21 636.563C1270.61 633.622 1304.61 615.071 1315.71 599.695Z"/><path fill="white" transform="matrix(2.83681 0 0 2.83691 0 -0.000244141)" d="M1247.09 675.301C1251.59 689.725 1253.22 706.184 1255.94 721.118C1258.67 736.133 1264.01 773.693 1269.88 785.899C1271.25 788.734 1273.07 791.45 1275.46 793.524C1282.44 799.595 1291.35 804.607 1299.06 809.759C1318.07 822.468 1337.24 834.882 1356.78 846.775C1366.9 852.936 1378.31 861.106 1389.34 865.337C1395.23 867.597 1404.22 865.073 1408.37 868.657C1410.11 876.059 1403.81 887.2 1400.61 893.819C1397.16 895.119 1393.61 896.376 1390.27 897.944C1384.37 900.705 1378.28 905.381 1376.07 911.72C1374.06 917.457 1375.49 921.883 1377.94 927.188L1345 927.146C1293.05 927.06 1241.02 927.813 1189.08 926.974C1188.83 917.745 1188.24 911.147 1181.56 904.335C1181.48 902.84 1181.27 901.093 1181.78 899.653C1182.81 896.74 1186.07 895.659 1188.66 894.446C1193.6 887.814 1186 778.497 1185 762.932C1192.19 755.102 1198.24 745.785 1204.49 737.173C1219.23 716.852 1233.16 696.172 1247.09 675.301Z"/><path fill="#8E90B2" transform="matrix(2.83681 0 0 2.83691 0 -0.000244141)" d="M308.317 323.254C318.677 324.637 344.252 330.687 354.859 333.075C361.891 354.926 368.139 379.624 374.666 401.814C395.515 473.52 415.241 546.22 442.013 615.974C488.576 737.294 568.177 845.136 679.203 914.412C698.237 926.289 713.429 933.208 733.858 942.22C726.18 942.72 713.377 939.715 706.079 937.465C502.627 874.75 403.87 684.771 353.168 491.689C338.395 435.427 320.11 381.154 308.317 323.254Z"/><path fill="#F8CC8A" transform="matrix(2.83681 0 0 2.83691 0 -0.000244141)" d="M150.902 350.772C139.531 330.889 125.491 288.114 118.657 265.139C116.321 255.386 107.927 228.994 113.33 220.252C117.807 213.008 133 221.339 140.95 225.48C165.21 238.118 189.702 255.179 211.065 272.752L215.318 276.399C233.781 290.892 270.355 323.468 283.344 342.532L286.867 346.478C291.67 352.518 313.363 379.311 315.345 383.917C323.507 402.883 330.893 434.169 336.677 454.806C316.936 445.178 303.609 441.13 283.475 433.591L276.209 431.448C248.439 423.049 216.479 418.45 187.776 414.715C176.229 399.358 160.967 372.945 153.246 355.886L150.902 350.772Z"/><path fill="#F8CC8A" transform="matrix(2.83681 0 0 2.83691 0 -0.000244141)" d="M150.902 350.772C139.531 330.889 125.491 288.114 118.657 265.139C116.321 255.386 107.927 228.994 113.33 220.252C117.807 213.008 133 221.339 140.95 225.48C165.21 238.118 189.702 255.179 211.065 272.752C210.729 311.944 210.814 332.648 229.283 367.247C201.1 363.425 177.741 361.408 150.902 350.772Z"/><path fill="#F8CC8A" transform="matrix(2.83681 0 0 2.83691 0 -0.000244141)" d="M153.246 355.886C161.125 357.796 171.198 361.623 178.574 363.104C194.544 366.312 215.274 369.629 231.464 370.979C236.673 379.481 275.73 429.51 276.209 431.448C248.439 423.049 216.479 418.45 187.776 414.715C176.229 399.358 160.967 372.945 153.246 355.886Z"/><path fill="#F8CC8A" transform="matrix(2.83681 0 0 2.83691 0 -0.000244141)" d="M286.867 346.478C291.67 352.518 313.363 379.311 315.345 383.917C323.507 402.883 330.893 434.169 336.677 454.806C316.936 445.178 303.609 441.13 283.475 433.591C276.612 413.2 285.686 371.207 286.867 346.478Z"/><path fill="#EF8E80" transform="matrix(2.83681 0 0 2.83691 0 -0.000244141)" d="M211.065 272.752L215.318 276.399C212.462 323.263 219.52 351.488 247.946 388.669C257.459 401.112 264.929 411.774 275.704 423.95L277.254 425.687C277.247 396.9 284.405 366.476 283.344 342.532L286.867 346.478C285.686 371.207 276.612 413.2 283.475 433.591L276.209 431.448C275.73 429.51 236.673 379.481 231.464 370.979C215.274 369.629 194.544 366.312 178.574 363.104C171.198 361.623 161.125 357.796 153.246 355.886L150.902 350.772C177.741 361.408 201.1 363.425 229.283 367.247C210.814 332.648 210.729 311.944 211.065 272.752Z"/><path fill="#ADD9CA" transform="matrix(2.83681 0 0 2.83691 0 -0.000244141)" d="M206.581 602.185C221.057 601.095 268.739 602.172 281.39 606.48C291.126 609.794 301.348 617.239 310.556 622.152C318.643 649.384 329.27 676.275 338.757 703.081C301.671 678.342 264.463 653.777 226.591 630.253C215.857 623.587 201.52 612.909 190.709 608.105C188.467 607.108 187.366 607.36 185.06 607.765L184.882 609.287C186.548 611.751 188.862 613.457 191.3 615.103C201.895 622.259 213.425 628.374 224.296 635.157C247.697 649.758 270.896 664.743 293.967 679.86C309.565 690.894 326.055 700.663 341.98 711.209C371.413 730.703 400.488 750.634 429.566 770.638L295.317 770.605C294.123 769.653 292.94 768.688 291.771 767.706C254.856 736.665 218.129 689.991 194.959 647.986C189.863 638.747 182.923 626.273 182.172 615.575C181.954 612.48 182.505 609.491 184.729 607.177C189.746 601.959 199.904 602.522 206.581 602.185Z"/><path fill="#EF8E80" transform="matrix(2.83681 0 0 2.83691 0 -0.000244141)" d="M1170.4 417.811C1184.76 417.562 1197.23 420.394 1209.64 427.868C1256.99 456.384 1301.66 535.806 1314.81 588.296C1314.42 589.18 1314.03 590.064 1313.62 590.941C1304.13 611.597 1275.12 622.878 1255.11 630.319C1248.06 587.99 1232.76 552.477 1207.38 517.851C1201.66 509.982 1195.69 502.449 1189.49 494.965C1193.9 491.12 1198.34 487.294 1202.66 483.345C1205.28 480.948 1208.8 478.181 1208.97 474.444L1207.11 473.355C1199.82 475.556 1134.11 537.417 1121.5 547.654C1113.21 538.203 1104.93 528.822 1096.16 519.82C1119.41 496.896 1143.71 474.345 1167.76 452.245C1171.19 449.099 1189.77 436.039 1190.49 434.329C1189.84 432.533 1189.94 432.372 1188.2 431.369C1177.31 434.898 1167.52 444.473 1159.22 451.972C1163.83 445.468 1169.11 438.211 1171.22 430.439C1172.52 425.635 1172.95 422.246 1170.4 417.811Z"/><path fill="#ADD9CA" transform="matrix(2.83681 0 0 2.83691 0 -0.000244141)" d="M138.989 419.013C167.174 413.742 240.064 427.076 269.404 435.158C276.315 460.536 281.515 486.571 287.651 512.168C268.345 501.071 136.342 423.668 123.95 425.242L123.49 426.526C125.078 428.741 127.158 430.177 129.458 431.577C135.755 435.409 142.978 438.172 149.535 441.633L198.486 467.85C232.734 486.492 267.219 505.773 300.268 526.458C311.599 533.55 324.221 540.658 334.396 549.354C299.722 553.109 264.723 558.357 230.884 566.831C215.242 554.188 199.651 541.174 185.352 527.012C164.978 506.832 124.211 458.564 118.054 431.796C117.501 429.393 117.363 426.698 118.894 424.611C122.532 419.654 133.387 419.618 138.989 419.013Z"/><path fill="#ADD9CA" transform="matrix(2.83681 0 0 2.83691 0 -0.000244141)" d="M300.78 775.999C346.313 775.952 391.935 775.471 437.453 776.508C467.721 798.233 499.506 818.237 529.326 840.493C536.715 846.007 543.622 852.196 550.822 857.956C558.261 863.908 567.465 869.788 573.777 876.883C476.078 881.657 373.01 841.481 300.78 775.999Z"/><path fill="#ADD9CA" transform="matrix(2.83681 0 0 2.83691 0 -0.000244141)" d="M199.678 64.9277C252.88 64.6578 357.559 125.47 393.537 165.532C393.997 186.851 390.273 230.74 388.591 253.118C388.557 255.005 388.411 255.354 387.918 257.097C384.408 256.369 359.352 225.1 355.203 220.318C307.074 164.84 254.016 114.234 199.678 64.9277Z"/><path fill="#ADD9CA" transform="matrix(2.83681 0 0 2.83691 0 -0.000244141)" d="M193.418 68.1054C213.86 81.6287 358.199 223.321 359.311 235.224C318.001 229.404 275.05 220.377 233.925 215.745C218.824 183.661 183.728 102.416 193.418 68.1054Z"/><path fill="#ADD9CA" transform="matrix(2.83681 0 0 2.83691 0 -0.000244141)" d="M316.97 625.151C327.047 628.287 336.887 634.637 346.833 638.552C369.101 647.319 387.179 646.898 406.482 663.347C413.166 669.043 428.435 704.714 434.768 715.696C456.314 753.062 480.762 787.464 509.42 819.691C502.189 817.135 494.627 809.953 488.287 805.526L424.032 759.931C398.187 741.803 371.679 724.532 345.481 706.916C342.843 697.09 338.939 687.404 335.53 677.808C329.299 660.272 322.977 642.765 316.97 625.151Z"/><path fill="#ADD9CA" transform="matrix(2.83681 0 0 2.83691 0 -0.000244141)" d="M236.965 221.659C280.059 227.54 323.497 235.223 366.522 242.155C375.458 251.637 391.059 271.112 399.137 281.488C383.375 288.767 367.473 295.626 351.244 301.797C334.132 308.384 319.128 313.285 301.518 318.408C302.7 326.114 305.49 337.176 307.216 345.038C293.903 326.436 281.835 305.136 270.434 285.186C259.969 266.874 244.775 241.275 236.965 221.659Z"/><path fill="#8E90B2" transform="matrix(2.83681 0 0 2.83691 0 -0.000244141)" d="M539.291 171.192C551.728 176.419 568.238 181.709 581.152 185.779C573.576 198.158 559.913 212.623 549.253 222.357C495.004 271.897 427.835 302.679 359.245 326.561C353.794 328.307 325.545 321.003 317.875 319.282C408.719 287.907 484.313 254.63 539.291 171.192Z"/><path fill="#ADD9CA" transform="matrix(2.83681 0 0 2.83691 0 -0.000244141)" d="M341.226 554.254C344.924 553.633 367.074 569.298 372.07 572.549C380.544 597.56 389.447 622.99 400.937 646.792C373.166 643.048 348.201 633.806 323.144 621.624C292.996 606.605 264.575 590.222 236.827 571.1C271.024 562.959 306.241 557.649 341.226 554.254Z"/><path fill="white" transform="matrix(2.83681 0 0 2.83691 0 -0.000244141)" d="M1184.81 499.287C1185.24 499.403 1185.33 499.401 1185.77 499.664C1191.25 502.879 1196.55 512.271 1200.27 517.455C1225.18 552.183 1241.11 583.659 1248.83 625.802C1239.3 628.7 1229.63 630.817 1219.92 632.976C1210.79 634.669 1201.63 635.699 1192.41 636.737C1193.37 597.206 1180.23 556.123 1156.46 524.532C1166.16 516.404 1174.89 507.202 1184.81 499.287Z"/><path fill="#ADD9CA" transform="matrix(2.83681 0 0 2.83691 0 -0.000244141)" d="M276.157 437.853C297.943 443.447 319.125 451.741 338.906 462.43C348.186 496.356 359.824 529.682 368.835 563.631C362.12 560.686 354.992 555.143 348.725 551.188C330.518 539.698 312.606 527.72 294.435 516.16C290.869 505.682 288.814 494.15 286.448 483.349L276.157 437.853Z"/><path fill="#ADD9CA" transform="matrix(2.83681 0 0 2.83691 0 -0.000244141)" d="M398.806 171.804C411.115 177.7 448.178 234.617 457.15 247.656C450.215 252.917 442.341 257.809 434.997 262.56C425.96 268.118 414.582 273.681 405.037 278.634C401.239 274.033 397.328 269.552 393.422 265.044C393.513 261.286 393.654 257.38 393.969 253.637C396.246 226.564 396.484 198.82 398.806 171.804Z"/><path fill="#56587B" transform="matrix(2.83681 0 0 2.83691 0 -0.000244141)" d="M1110.54 362.11C1134.08 360.049 1142.11 375.618 1160.83 385.746L1155.8 392.159C1159.47 397.865 1160.16 399.639 1162.48 405.925C1161.29 409.905 1160.29 415.463 1156.36 417.439C1151.04 416.261 1133.55 404.057 1129.03 399.117C1124.41 401.213 1120.64 402.743 1115.93 404.526C1096.79 409.001 1095.67 399.819 1082.22 393.938L1080.6 394.761C1079.19 399.682 1083.27 409.844 1085.13 414.769L1084.3 415.163C1072.36 411.318 1061.62 386.057 1073.87 376.534C1084.6 368.189 1097.35 363.726 1110.54 362.11Z"/><path fill="white" transform="matrix(2.83681 0 0 2.83691 0 -0.000244141)" d="M922.135 478.581C939.987 474.746 960.487 482.566 977.673 486.176C1001.76 491.234 1054.73 498.226 1077.91 490.453C1083.53 497.532 1088.22 505.363 1093.08 512.973L1086 518.626C1078.29 519.108 1070.35 518.409 1062.63 518.099C1041.68 516.258 1020.96 513.39 1000.14 510.483C992.332 503.47 982.48 494.684 971.486 494.249C964.76 493.984 960.564 496.69 955.816 501.139C949.943 499.874 943.893 499.268 938.082 497.714C935.943 497.141 933.825 496.536 932.718 494.57C935.195 492.098 938.98 492.233 942.121 490.983C943.94 490.26 944.79 489.955 945.59 488.113C940.982 482.304 916.584 484.538 908.546 482.011L908.514 481.078C912.796 479.308 917.568 479.085 922.135 478.581Z"/><path fill="white" transform="matrix(2.83681 0 0 2.83691 0 -0.000244141)" d="M965.955 499.595L967.059 499.522C980.168 498.744 988.106 506.903 997.263 515.027C1024.81 521.454 1062.5 524.409 1090.97 523.471C1097.85 526.268 1110.54 543.792 1115.48 550.192L1115.29 551.594L1111.41 553.192C1084.2 556.93 1023.68 534.603 995.434 527.691C988.942 526.102 982.087 525.729 975.492 524.585C969.807 523.599 963.91 521.581 960.53 516.578C958.741 513.931 958.242 510.805 959.019 507.715C960.078 503.507 962.532 501.79 965.955 499.595Z"/><path fill="#8E90B2" transform="matrix(2.83681 0 0 2.83691 0 -0.000244141)" d="M779.414 156.404C785.031 157.188 810.328 164.259 818.034 166.086C775.09 181.744 705.845 198.148 660.856 195.176C647.648 194.429 632.742 192.775 619.942 189.574C683.699 186.202 718.541 180.502 779.414 156.404Z"/><path fill="white" transform="matrix(2.83681 0 0 2.83691 0 -0.000244141)" d="M1087.5 404.96C1113.16 418.419 1107.9 407.337 1126.96 406.593C1132.58 410.533 1128.72 412.753 1130.47 417.648C1131.01 419.131 1132.25 419.242 1133.58 419.76C1135.74 418.566 1136.18 416.069 1137.3 413.883C1139.73 414.308 1141.78 415.143 1143.91 416.35C1148.74 419.075 1152.48 424.216 1153.68 429.628C1154.7 434.171 1151.78 438.927 1149.58 442.669L1144.44 448.47C1140.62 445.449 1133.6 441.476 1131.14 437.355L1133.98 430.863C1133.58 428.587 1133.5 428.649 1131.62 427.272C1128.3 430.758 1124.76 434.615 1120.18 436.379C1116.4 437.836 1112.27 437.688 1108.6 435.975C1097.69 430.883 1091.47 415.683 1087.5 404.96Z"/><path fill="white" transform="matrix(2.83681 0 0 2.83691 0 -0.000244141)" d="M1436.52 853.894C1441.75 856.139 1446.92 859.742 1451.83 862.667C1442.92 880.266 1420.51 911.324 1401.54 918.223C1395.51 920.414 1387.48 922.716 1381.37 919.825C1380.93 919.128 1380.09 918.184 1380.06 917.367C1379.91 913.334 1383.16 909.735 1385.62 906.868C1390 903.766 1394.42 901.95 1399.45 900.228C1402.81 902.202 1407.31 905.694 1411.15 906.479C1412.91 906.838 1413.5 907.023 1415 906.003C1412.78 899.973 1406.24 897.64 1401.03 894.83C1406.12 895.861 1413.77 898.384 1418.69 897.27L1419.43 895.523C1417.29 890.115 1412.73 892.598 1408.75 890.551L1408.43 888.69C1410.14 887.877 1411.84 887.223 1413.62 886.591C1414.86 883.31 1413.35 880.269 1413.38 876.794C1413.39 876.06 1414.04 872.297 1414.55 872.013C1417.78 870.214 1426.11 873.96 1432.52 867.326C1436.3 863.407 1436.69 859.088 1436.52 853.894Z"/><path fill="white" transform="matrix(2.83681 0 0 2.83691 0 -0.000244141)" d="M1178.03 911.48C1179.32 911.787 1180.09 911.826 1180.98 912.923C1184.17 916.88 1183.21 926.155 1183.02 930.955C1172.01 933.588 1144.09 943.588 1134.39 941.762C1132.82 938.255 1131.17 934.798 1129.47 931.351C1126.87 927.78 1124.08 925.312 1120.58 922.626C1131.06 918.616 1142.13 914.826 1153.01 912.054C1154.71 914.881 1156.5 918.341 1159.17 920.355C1161.17 921.861 1163.58 922.743 1166.09 922.252C1171.46 921.204 1174.98 915.567 1178.03 911.48Z"/><path fill="#2F2B47" transform="matrix(2.83681 0 0 2.83691 0 -0.000244141)" d="M1136.03 918.023C1138.45 918.069 1140.08 918.149 1142.18 919.485L1142.3 920.68C1140.04 923.392 1136.53 924.181 1133.31 925.288C1136.41 929.34 1139.33 933.57 1142.31 937.714C1141.07 938.226 1139.61 939.222 1138.3 938.819C1133.77 937.427 1129.55 927.659 1127.34 923.702C1130.15 921.705 1133.14 919.898 1136.03 918.023Z"/><path fill="#EF8E80" transform="matrix(2.83681 0 0 2.83691 0 -0.000244141)" d="M1151 528.445C1151.82 528.652 1151.75 528.599 1152.63 529.002C1161.6 533.108 1177.68 575.713 1180.5 585.467C1183.48 595.79 1190.39 627.473 1185.15 636.97L1174.57 638.002C1175.86 618.878 1175.24 599.906 1170.48 581.247C1167.99 571.467 1165.15 561.594 1161.12 552.34C1158.79 546.982 1150.72 533.551 1151 528.445Z"/><path fill="#EF8E80" transform="matrix(2.83681 0 0 2.83691 0 -0.000244141)" d="M1108.8 468.24C1111.96 470.993 1116.72 485.692 1118.87 490.457C1113 496.314 1105.24 505.941 1097.82 509.551L1096.39 508.052C1091.47 500.319 1086.38 492.796 1081 485.374C1090.99 480.455 1099.88 474.901 1108.8 468.24Z"/><path fill="white" transform="matrix(2.83681 0 0 2.83691 0 -0.000244141)" d="M1109.35 926.4C1111.48 926.231 1114.3 925.831 1116.29 926.699C1119.97 928.305 1127.02 934.012 1128.27 938.027C1128.92 940.14 1128.14 941.169 1127.19 942.969C1124.15 945.501 1118.99 945.379 1115.17 945.783C1111.38 945.869 1107.44 946.098 1103.66 945.777C1100.09 945.473 1096.59 944.182 1094.28 941.356C1093.87 939.572 1093.49 938.759 1094.25 937.007C1096.51 931.862 1104.49 928.329 1109.35 926.4Z"/><path fill="#EF8E80" transform="matrix(2.83681 0 0 2.83691 0 -0.000244141)" d="M1121.33 454.929C1123.99 457.625 1129.71 470.492 1134.38 476.135L1125.02 484.692L1123.63 485.814C1118.64 482.399 1115.76 468.501 1114.52 462.533C1116.9 460.104 1119.1 457.495 1121.33 454.929Z"/><path fill="#EF8E80" transform="matrix(2.83681 0 0 2.83691 0 -0.000244141)" d="M1153.65 898.005C1160.4 898.849 1167.51 897.17 1174.01 899.179C1175.04 900.162 1175.75 900.476 1175.88 901.952C1176.24 905.993 1172.62 909.536 1170.27 912.461C1168.34 914.647 1166.38 917.037 1163.45 917.44C1160.13 914.354 1158.31 910.06 1155.77 906.369C1153.85 903.579 1153.78 901.29 1153.65 898.005Z"/><path fill="#EF8E80" transform="matrix(2.83681 0 0 2.83691 0 -0.000244141)" d="M1419.48 845.866C1422.73 847.854 1426.79 850.849 1429.07 853.89C1430.36 855.6 1431.11 858.086 1430.58 860.205C1429.66 863.937 1425.67 865.863 1422.62 867.611C1417.49 866.043 1413.31 863.545 1408.75 860.811C1412.15 855.732 1415.9 850.826 1419.48 845.866Z"/><path fill="white" transform="matrix(2.83681 0 0 2.83691 0 -0.000244141)" d="M1457.23 865.465L1458.35 866.765C1458.3 867.212 1458.25 867.816 1458.12 868.271C1453.95 883.616 1421.18 917.191 1407.8 926.139C1402.79 926.698 1397.9 926.992 1392.87 927.09L1392.41 926.882C1393.88 925.509 1396.32 925.493 1398.29 925.019C1423 919.054 1444.62 886.144 1457.23 865.465Z"/><path fill="white" transform="matrix(2.83681 0 0 2.83691 0 -0.000244141)" d="M1180.51 936.997L1182.07 937.142L1182 938.447C1177.41 941.289 1170.9 942.453 1165.73 943.91C1143.87 950.057 1120.44 955.874 1097.7 952.055L1095.34 950.318L1095.48 949.33C1122.66 955.463 1154.25 944.193 1180.51 936.997Z"/><path fill="white" transform="matrix(2.83681 0 0 2.83691 0 -0.000244141)" d="M1145.12 454.294C1148.04 454.622 1149.93 457.371 1151.81 459.392C1147.31 463.457 1142.99 467.774 1138.6 471.965C1135.55 468.046 1132.88 463.736 1130.1 459.614C1135.35 458.165 1140.2 456.655 1145.12 454.294Z"/><path fill="#EF8E80" transform="matrix(2.83681 0 0 2.83691 0 -0.000244141)" d="M1163.9 419.256L1165.57 419.967C1165.95 420.672 1166.27 421.255 1166.38 422.061C1167.86 432.614 1157.84 444.654 1152.11 452.891L1150.35 451.614C1149.49 448.478 1157.28 440.438 1158.64 436.61C1160.11 432.496 1158.19 427.571 1158.96 423.424C1159.35 421.316 1162.22 420.258 1163.9 419.256Z"/><path fill="white" transform="matrix(2.83681 0 0 2.83691 0 -0.000244141)" d="M1124.75 440.372C1125.42 440.516 1126.03 440.636 1126.62 440.994C1129.18 442.526 1138.1 448.835 1138.74 451.25L1128.45 453.817L1124.75 440.372Z"/><path fill="#ADD9CA" transform="matrix(2.83681 0 0 2.83691 0 -0.000244141)" d="M1501.64 314.792C1494.87 305.947 1488.11 295.722 1489.18 283.658C1490.91 264.29 1522.62 256.281 1538.56 257.764C1557.01 259.479 1558.27 278.436 1560 293.47C1574.88 293.119 1578.48 293.284 1592.87 296.535C1598.45 283.683 1602.88 267.251 1617.83 263.915C1622.43 262.889 1626.71 262.937 1631.11 264.99C1664.28 281.059 1679.78 297.406 1649.28 328.182C1659.25 338.658 1661.73 344.706 1668.9 357.046C1690.4 349.818 1705.95 347.621 1713.37 373.936C1722.32 405.71 1715.52 425.484 1679.21 425.847C1676.54 436.127 1674.13 445.695 1669.78 455.47C1685.52 463.725 1701.16 477.575 1690.34 496.779C1684.66 506.852 1672.07 520.497 1661.36 525.013C1642.77 524.398 1637.3 516.874 1625.04 503.772C1615.58 509.808 1611.05 511.378 1600.24 514.638C1604.25 534.245 1607.52 555.54 1581.53 560.46C1569.27 562.783 1553.23 562.087 1541.94 556.674C1539.38 554.082 1538.58 553.943 1535.17 552.782C1523.76 540.647 1528.85 527.206 1532.32 512.827C1519.64 509.264 1511.22 504.982 1500.5 497.345C1477.85 518.378 1456.19 519.893 1441.88 489.641C1429.56 463.594 1440.91 454.351 1462.51 442.697C1459.41 430.634 1458.05 422.742 1457.3 410.217C1446.48 408.836 1433.05 408.611 1425.77 399.299C1414.45 384.815 1424.23 349.046 1437.88 338.664C1448.78 330.379 1464.62 337.162 1476.33 341.181C1484.68 328.757 1489.81 324.2 1501.64 314.792Z"/><path fill="white" transform="matrix(2.83681 0 0 2.83691 0 -0.000244141)" d="M1560.19 321.314C1606.22 316.95 1647.08 350.729 1651.46 396.772C1655.85 442.815 1622.09 483.698 1576.06 488.1C1530 492.505 1489.1 458.719 1484.72 412.649C1480.33 366.578 1514.13 325.68 1560.19 321.314Z"/><path fill="#ADD9CA" transform="matrix(2.83681 0 0 2.83691 0 -0.000244141)" d="M1560.88 354.136C1588.75 350.272 1614.54 369.567 1618.7 397.4C1622.87 425.233 1603.86 451.233 1576.08 455.7C1557.84 458.633 1539.43 451.538 1527.87 437.12C1516.32 422.703 1513.4 403.187 1520.23 386.017C1527.06 368.848 1542.58 356.672 1560.88 354.136Z"/><path fill="white" transform="matrix(2.83681 0 0 2.83691 0 -0.000244141)" d="M1564.11 388.856C1569.85 387.224 1576.01 388.815 1580.25 393.018C1584.48 397.22 1586.11 403.379 1584.52 409.126C1582.93 414.873 1578.36 419.314 1572.57 420.74C1563.84 422.892 1554.99 417.648 1552.68 408.953C1550.38 400.257 1555.46 391.317 1564.11 388.856Z"/><path fill="#ADD9CA" transform="matrix(2.83681 0 0 2.83691 0 -0.000244141)" d="M1501.76 761.035C1506.15 809.871 1503.6 857.636 1494.41 905.79C1493.79 909.001 1493.03 914.257 1491.5 916.975C1488.9 918.555 1489.92 918.445 1487.34 918.119C1484.97 913.769 1492.79 876.183 1493.97 867.225C1532.22 576.324 1296.43 291.51 1002.89 278.42C995.275 278.08 960.437 280.345 957.392 275.727L958.425 274.077C960.145 273.049 961.902 272.668 963.904 272.574C1219.31 260.604 1446.55 462.204 1495.38 707.816C1498.12 721.569 1499.55 736.031 1501.15 749.894C1516.25 730.782 1529.75 710.592 1545.61 691.229C1547 641.032 1542.53 601.545 1535.17 552.782C1538.58 553.943 1539.38 554.082 1541.94 556.674C1549.3 587.361 1553.02 652.976 1552.12 684.348C1561.53 674.2 1569.8 666.761 1581.42 659.055C1579.82 641.474 1583.14 625.54 1599.32 615.313C1617.21 603.572 1648.23 607.936 1659 627.774C1686.3 678.063 1611.35 713.061 1583.6 665.376C1556.6 683.882 1535.48 713.055 1516.78 739.795C1522.68 745.875 1527.84 753.818 1534.73 758.96C1544.7 766.458 1557.52 766.744 1556.92 782.489C1557.05 796.794 1538.66 802.961 1528.11 795.234C1514.92 785.571 1519.84 773.346 1530.33 764.819L1512.75 745.342C1508.85 750.395 1505.34 755.744 1501.76 761.035Z"/><path fill="white" transform="matrix(2.83681 0 0 2.83691 0 -0.000244141)" d="M1615.41 614.535C1634.17 610.504 1652.63 622.507 1656.56 641.293C1660.49 660.079 1648.39 678.478 1629.59 682.309C1610.93 686.112 1592.7 674.121 1588.8 655.476C1584.9 636.831 1596.79 618.537 1615.41 614.535Z"/><path fill="white" transform="matrix(2.83681 0 0 2.83691 0 -0.000244141)" d="M1534.55 770.557C1538.39 769.215 1542.66 770.064 1545.7 772.774C1548.73 775.485 1550.06 779.63 1549.16 783.6C1548.26 787.57 1545.28 790.74 1541.38 791.88C1535.55 793.579 1529.43 790.325 1527.58 784.543C1525.73 778.762 1528.82 772.559 1534.55 770.557Z"/><path fill="#ADD9CA" transform="matrix(2.83681 0 0 2.83691 0 -0.000244141)" d="M1316.8 101.723C1338.27 100.973 1357.08 103.901 1377.02 111.325C1483.02 150.789 1498.33 280.775 1407.38 346.356C1400.37 351.405 1394.85 355.948 1386.71 359.477C1383.99 358.838 1384.88 359.464 1383.37 357.307C1384.21 352.877 1391.27 349.848 1395.1 347.455C1439.77 319.942 1469.51 265.43 1459.24 212.947C1441.2 123.411 1331.91 81.283 1254.71 126.139C1180.59 169.204 1177.74 269.31 1248.36 317.05C1281.37 339.369 1315.51 344.527 1354.46 336.931C1374.02 331.11 1387.81 325.411 1403.67 312.371C1446.79 276.929 1454.18 213.493 1418.98 169.768C1387.12 130.189 1339.37 118.163 1290.53 125.043C1288.84 125.281 1288.05 124.367 1287.21 123.287C1288.51 118.333 1296.93 118.52 1301.21 117.939C1368.06 108.886 1442.39 153.264 1447.33 225.004C1453.94 320.882 1344.32 373.86 1263.88 333.08C1141.47 271.021 1181.37 110.342 1316.8 101.723Z"/><path fill="#ADD9CA" transform="matrix(2.83681 0 0 2.83691 0 -0.000244141)" d="M988.801 287.993C996.009 287.113 1007.45 288.209 1015 288.752C1054.8 291.615 1094.37 300.206 1132.18 313.05C1259.39 356.263 1369.71 461.562 1429.36 580.913C1469.69 661.608 1489.08 757.397 1483.47 847.405C1482.71 859.625 1481.18 886.266 1477.56 896.946C1470.45 897.205 1471.79 891.725 1472.67 885.971C1488.97 779.817 1466.49 660.446 1415.03 566.553C1336.9 424.009 1192.39 312.095 1027.86 296.273C1016.07 295.133 1001.88 295.41 990.531 293.319C988.607 291.286 989.15 291.212 988.801 287.993Z"/><path fill="#ADD9CA" transform="matrix(2.83681 0 0 2.83691 0 -0.000244141)" d="M1344.28 163.513C1344.76 163.59 1345.24 163.669 1345.71 163.775C1345.93 163.823 1346.14 163.878 1346.36 163.924C1347.8 164.229 1348.84 164.584 1350.01 165.489C1354.89 169.26 1360.84 174.93 1361.33 181.493C1361.85 188.427 1335.55 223.153 1329.47 230.243C1327.36 232.702 1324.5 236.125 1321.05 236.192C1313.88 236.333 1306.08 227.142 1301.32 222.713C1287.72 209.818 1272.46 198.883 1296.66 183.304C1301.29 186.204 1311.39 195.681 1316.04 199.798C1324.59 190.199 1336.39 168.464 1344.28 163.513Z"/><path fill="white" transform="matrix(2.83681 0 0 2.83691 0 -0.000244141)" d="M1344.42 171.06C1348.7 172.508 1353.19 178.117 1356.08 181.589C1348.14 193.824 1330.16 220.637 1320.53 230.885C1313.85 225.81 1307.91 220.233 1301.72 214.588C1296.6 210.453 1293.23 206.98 1289.26 201.761C1291.95 196.547 1292.84 194.591 1296.79 190.098C1318.13 212.173 1318.88 208.288 1334.6 185.036C1337.69 180.465 1341.23 175.595 1344.42 171.06Z"/><path fill="#ADD9CA" transform="matrix(2.83681 0 0 2.83691 0 -0.000244141)" d="M1226.31 120.313C1230.19 119.571 1231.64 119.164 1234.64 121.086L1234.85 122.75C1231.58 126.77 1211.61 128.559 1205.58 129.635C1114.44 145.881 1028.7 183.397 957.617 243.203C935.61 261.721 914.085 280.936 896.054 303.486C894.199 305.456 893.121 306.349 890.595 305.868L890.088 303.707C893.654 290.948 932.933 257.063 944.441 246.79C1025.66 174.281 1119.38 136.331 1226.31 120.313Z"/><path fill="#2F2B47" transform="matrix(2.83681 0 0 2.83691 0 -0.000244141)" d="M465.362 74.8318C473.183 76.4196 470.864 90.8887 477.862 98.093C483.973 104.385 501.945 107.208 504.083 111.407C500.707 113.694 491.905 111.731 483.327 117.789C472.34 125.547 471.317 133.067 468.34 145.571C464.192 144.324 463.958 140.833 462.936 136.916C457.663 116.693 448.188 116.478 430.13 111.103L429.774 109.993C435.156 106.554 444.478 106.503 450.869 102.311C461.342 95.4423 462.817 85.9075 465.362 74.8318Z"/><path fill="white" transform="matrix(2.83681 0 0 2.83691 0 -0.000244141)" d="M466.995 90.5966C473.191 101.58 475.574 103.609 485.965 109.926C475.01 116.605 472.542 118.591 467.016 130.056C460.97 118.876 458.382 116.58 447.436 110.015C457.543 105.313 461.712 100.077 466.995 90.5966Z"/><path fill="#ADD9CA" transform="matrix(2.83681 0 0 2.83691 0 -0.000244141)" d="M1512.89 584.433C1522.12 581.453 1532.02 586.532 1535 595.774C1537.97 605.015 1532.88 614.915 1523.64 617.879C1514.41 620.841 1504.53 615.761 1501.56 606.53C1498.59 597.299 1503.66 587.409 1512.89 584.433Z"/><path fill="white" transform="matrix(2.83681 0 0 2.83691 0 -0.000244141)" d="M1516.89 590.703C1522.68 589.793 1528.14 593.705 1529.13 599.489C1530.13 605.272 1526.31 610.787 1520.54 611.875C1516.73 612.594 1512.83 611.204 1510.33 608.237C1507.84 605.27 1507.13 601.188 1508.49 597.555C1509.85 593.923 1513.06 591.304 1516.89 590.703Z"/><path fill="#ADD9CA" transform="matrix(2.83681 0 0 2.83691 0 -0.000244141)" d="M1088.61 245.508C1097.15 242.649 1106.38 247.269 1109.21 255.814C1112.04 264.359 1107.39 273.577 1098.83 276.378C1090.32 279.165 1081.16 274.54 1078.35 266.036C1075.53 257.532 1080.12 248.353 1088.61 245.508Z"/><path fill="white" transform="matrix(2.83681 0 0 2.83691 0 -0.000244141)" d="M1090.7 251.066C1096.1 249.448 1101.8 252.454 1103.52 257.825C1105.24 263.195 1102.34 268.951 1097 270.766C1093.46 271.971 1089.54 271.169 1086.76 268.67C1083.98 266.171 1082.76 262.364 1083.58 258.714C1084.4 255.064 1087.12 252.139 1090.7 251.066Z"/><path fill="#2F2B47" transform="matrix(2.83681 0 0 2.83691 0 -0.000244141)" d="M175.824 735.316C184.487 733.241 193.199 738.548 195.331 747.199C197.463 755.85 192.214 764.6 183.579 766.789C174.864 768.998 166.017 763.688 163.865 754.957C161.714 746.225 167.081 737.411 175.824 735.316Z"/><path fill="white" transform="matrix(2.83681 0 0 2.83691 0 -0.000244141)" d="M177.353 740.533C183.107 739.31 188.798 742.854 190.24 748.558C191.682 754.262 188.36 760.086 182.717 761.747C178.869 762.879 174.71 761.815 171.877 758.975C169.045 756.134 167.992 751.971 169.134 748.126C170.276 744.28 173.43 741.366 177.353 740.533Z"/><path fill="#2F2B47" transform="matrix(2.83681 0 0 2.83691 0 -0.000244141)" d="M905.633 860.849C914.055 859.783 921.735 865.778 922.749 874.208C923.763 882.639 917.723 890.284 909.288 891.246C900.926 892.201 893.363 886.222 892.358 877.864C891.353 869.506 897.284 861.905 905.633 860.849Z"/><path fill="white" transform="matrix(2.83681 0 0 2.83691 0 -0.000244141)" d="M905.156 866.242C910.547 865.028 915.904 868.404 917.136 873.792C918.369 879.18 915.012 884.549 909.63 885.801C904.221 887.059 898.82 883.681 897.582 878.267C896.343 872.852 899.739 867.462 905.156 866.242Z"/><path fill="#90B4BA" transform="matrix(2.83681 0 0 2.83691 0 -0.000244141)" d="M1014.42 817.213C1017.18 817.052 1020.6 817.899 1023.16 818.85L1023.41 819.872L1021.96 820.707C1020.76 819.778 1019.93 819.215 1018.42 818.849C1018.68 819.869 1018.72 819.913 1018.46 820.838L1017.83 821.069C1011.33 823.436 996.146 828.519 993.618 835.496C991.895 840.252 991.534 845.398 989.378 850.033L988.007 849.875C985.56 847.099 984.869 842.829 983.92 839.317L983.779 835.662L984.725 835.066C986.411 837.268 985.952 839.634 986.051 842.357L987.383 842.345C989.01 839.392 986.543 836.491 987.777 833.813C988.731 835.417 989.565 837.848 991.362 838.378C991.702 836.82 992.13 835.26 992.674 833.76C994.288 829.309 998.938 824.351 1003.25 822.472C1004.26 822.032 1004.77 821.801 1005.52 820.917L1002.79 818.785L1002.99 817.826C1006.82 817.976 1010.61 817.559 1014.42 817.213Z"/><path fill="#2F2B47" transform="matrix(2.83681 0 0 2.83691 0 -0.000244141)" d="M1696.97 689.911C1697.86 690.032 1698.74 690.181 1699.61 690.423C1703.13 691.407 1706.01 693.604 1707.6 696.942C1708.93 699.73 1708.89 702.942 1707.8 705.803C1706.03 710.458 1702.9 712.277 1698.55 714.164C1697.49 713.759 1696.91 713.152 1696.07 712.409C1696.65 709.791 1699.83 709.098 1701.91 707.623C1704.11 706.063 1704.62 704.383 1705.03 701.892C1704.15 698.739 1701.44 696.027 1698.65 694.432C1697.32 693.675 1696.66 693.261 1695.82 691.988L1696.97 689.911Z"/><path fill="#90B4BA" transform="matrix(2.83681 0 0 2.83691 0 -0.000244141)" d="M1040.81 696.559L1041.98 699.166C1041.61 701.802 1034.22 706.349 1031.81 708.808L1030.85 708.167C1033.59 702.892 1036.04 700.189 1040.81 696.559Z"/></svg>