<?xml version="1.0" encoding="utf-8"?>
<!-- Generator: Adobe Illustrator 27.5.0, SVG Export Plug-In . SVG Version: 6.00 Build 0)  -->
<svg version="1.1" id="Ñëîé_1" xmlns="http://www.w3.org/2000/svg" xmlns:xlink="http://www.w3.org/1999/xlink" x="0px" y="0px"
	 viewBox="0 0 2312.723 2200" style="enable-background:new 0 0 2312.723 2200;" xml:space="preserve">
<rect x="0" style="fill:#FFFFFF;" width="2312.723" height="2200"/>
<g>
	<path style="fill:#322A28;" d="M663.004,334.933c0-7.824,1.312-14.915,3.936-21.267c2.624-6.353,6.283-11.76,10.98-16.226
		c4.695-4.465,10.265-7.894,16.71-10.289c6.443-2.393,13.487-3.591,21.13-3.591c7.641,0,14.685,1.198,21.13,3.591
		c6.443,2.395,12.014,5.823,16.71,10.289c4.696,4.466,8.356,9.874,10.98,16.226c2.624,6.353,3.936,13.444,3.936,21.267
		c0,7.827-1.312,14.915-3.936,21.268c-2.624,6.353-6.283,11.762-10.98,16.226c-4.695,4.467-10.266,7.896-16.71,10.289
		c-6.445,2.393-13.489,3.591-21.13,3.591c-7.643,0-14.686-1.198-21.13-3.591c-6.445-2.393-12.014-5.821-16.71-10.289
		c-4.696-4.464-8.356-9.874-10.98-16.226C664.316,349.848,663.004,342.76,663.004,334.933z M685.376,334.933
		c0,4.606,0.712,8.818,2.141,12.637c1.426,3.821,3.475,7.135,6.146,9.943c2.669,2.81,5.87,4.996,9.597,6.56
		c3.729,1.566,7.894,2.348,12.498,2.348c4.603,0,8.77-0.782,12.499-2.348c3.728-1.564,6.926-3.75,9.597-6.56
		c2.669-2.808,4.717-6.122,6.146-9.943c1.426-3.819,2.141-8.031,2.141-12.637c0-4.51-0.714-8.7-2.141-12.567
		c-1.428-3.866-3.477-7.203-6.146-10.012c-2.671-2.807-5.87-4.993-9.597-6.56c-3.729-1.564-7.896-2.348-12.499-2.348
		c-4.605,0-8.77,0.784-12.498,2.348c-3.728,1.567-6.928,3.753-9.597,6.56c-2.671,2.81-4.719,6.146-6.146,10.012
		C686.089,326.233,685.376,330.423,685.376,334.933z"/>
	<path style="fill:#322A28;" d="M780.526,316.704h19.887v9.114h0.276c0.643-1.288,1.564-2.577,2.761-3.866
		c1.195-1.289,2.624-2.439,4.281-3.453c1.658-1.013,3.543-1.84,5.663-2.486c2.117-0.643,4.419-0.966,6.904-0.966
		c5.248,0,9.482,0.807,12.705,2.417c3.222,1.611,5.731,3.845,7.527,6.697c1.795,2.855,3.014,6.215,3.659,10.082
		c0.643,3.867,0.966,8.057,0.966,12.567v37.011h-20.715v-32.868c0-1.934-0.069-3.936-0.208-6.008
		c-0.138-2.071-0.552-3.981-1.243-5.731c-0.69-1.748-1.75-3.176-3.176-4.281c-1.428-1.104-3.476-1.657-6.146-1.657
		c-2.671,0-4.833,0.483-6.49,1.45c-1.657,0.967-2.924,2.257-3.797,3.867c-0.877,1.611-1.451,3.43-1.727,5.455
		c-0.276,2.026-0.414,4.143-0.414,6.353v33.42h-20.716V316.704z"/>
	<path style="fill:#322A28;" d="M860.071,279.417h20.716v104.404h-20.716V279.417z"/>
	<path style="fill:#322A28;" d="M894.319,295.575c0-3.315,1.174-6.146,3.522-8.493c2.348-2.348,5.178-3.522,8.493-3.522
		c3.314,0,6.146,1.174,8.493,3.522c2.348,2.348,3.521,5.178,3.521,8.493c0,3.314-1.173,6.145-3.521,8.493
		c-2.348,2.348-5.179,3.521-8.493,3.521c-3.315,0-6.146-1.173-8.493-3.521C895.493,301.72,894.319,298.889,894.319,295.575z
		 M895.976,316.704h20.716v67.117h-20.716V316.704z"/>
	<path style="fill:#322A28;" d="M931.606,316.704h19.887v9.114h0.276c0.643-1.288,1.564-2.577,2.762-3.866
		c1.195-1.289,2.624-2.439,4.281-3.453c1.658-1.013,3.543-1.84,5.663-2.486c2.117-0.643,4.419-0.966,6.904-0.966
		c5.248,0,9.482,0.807,12.705,2.417c3.222,1.611,5.731,3.845,7.527,6.697c1.795,2.855,3.014,6.215,3.659,10.082
		c0.643,3.867,0.966,8.057,0.966,12.567v37.011h-20.715v-32.868c0-1.934-0.069-3.936-0.208-6.008
		c-0.138-2.071-0.552-3.981-1.243-5.731c-0.69-1.748-1.75-3.176-3.176-4.281c-1.428-1.104-3.476-1.657-6.146-1.657
		c-2.671,0-4.833,0.483-6.49,1.45c-1.657,0.967-2.924,2.257-3.797,3.867c-0.877,1.611-1.451,3.43-1.727,5.455
		c-0.276,2.026-0.414,4.143-0.414,6.353v33.42h-20.716V316.704z"/>
	<path style="fill:#322A28;" d="M1074.401,372.221c-3.314,4.236-7.505,7.505-12.567,9.805c-5.065,2.301-10.313,3.453-15.743,3.453
		c-5.157,0-10.012-0.829-14.57-2.486s-8.517-4.026-11.877-7.112c-3.362-3.083-6.007-6.789-7.941-11.117
		c-1.934-4.327-2.9-9.16-2.9-14.501c0-5.338,0.966-10.172,2.9-14.501c1.934-4.326,4.579-8.031,7.941-11.116
		c3.359-3.084,7.319-5.456,11.877-7.112c4.558-1.658,9.413-2.486,14.57-2.486c4.786,0,9.135,0.829,13.05,2.486
		c3.913,1.656,7.227,4.028,9.943,7.112c2.715,3.085,4.81,6.791,6.284,11.116c1.471,4.329,2.209,9.162,2.209,14.501v6.491h-48.059
		c0.829,3.959,2.625,7.112,5.386,9.46c2.763,2.348,6.167,3.521,10.219,3.521c3.405,0,6.283-0.759,8.632-2.278
		c2.348-1.519,4.395-3.474,6.145-5.869L1074.401,372.221z M1056.863,342.667c0.09-3.498-1.06-6.49-3.453-8.977
		c-2.396-2.485-5.479-3.729-9.253-3.729c-2.302,0-4.328,0.37-6.077,1.105c-1.75,0.738-3.246,1.681-4.488,2.831
		c-1.243,1.153-2.21,2.486-2.9,4.005s-1.083,3.107-1.174,4.764H1056.863z"/>
	<path style="fill:#322A28;" d="M1181.979,309.937c-1.75-2.209-4.122-3.842-7.112-4.902c-2.993-1.058-5.824-1.588-8.493-1.588
		c-1.566,0-3.176,0.186-4.834,0.552c-1.657,0.369-3.224,0.945-4.695,1.726c-1.474,0.784-2.671,1.819-3.59,3.108
		c-0.921,1.29-1.381,2.854-1.381,4.695c0,2.947,1.105,5.202,3.315,6.767c2.209,1.567,4.993,2.9,8.355,4.005
		c3.359,1.105,6.974,2.209,10.841,3.314c3.867,1.105,7.479,2.672,10.841,4.695c3.359,2.026,6.145,4.743,8.355,8.149
		c2.209,3.406,3.314,7.964,3.314,13.672c0,5.434-1.013,10.174-3.038,14.224c-2.026,4.052-4.765,7.411-8.217,10.081
		c-3.453,2.672-7.458,4.651-12.014,5.939c-4.558,1.288-9.369,1.934-14.432,1.934c-6.353,0-12.245-0.967-17.677-2.9
		c-5.432-1.934-10.495-5.063-15.191-9.391l15.329-16.848c2.21,2.947,4.993,5.227,8.355,6.836c3.36,1.612,6.836,2.417,10.427,2.417
		c1.747,0,3.521-0.207,5.316-0.622c1.796-0.414,3.406-1.036,4.834-1.864c1.427-0.828,2.577-1.886,3.453-3.175
		c0.874-1.289,1.312-2.808,1.312-4.558c0-2.945-1.128-5.27-3.383-6.975c-2.257-1.703-5.088-3.152-8.493-4.35
		c-3.407-1.195-7.09-2.393-11.048-3.591c-3.96-1.195-7.643-2.807-11.048-4.833c-3.407-2.024-6.238-4.695-8.493-8.01
		c-2.257-3.314-3.383-7.686-3.383-13.119c0-5.248,1.036-9.851,3.107-13.811c2.071-3.957,4.834-7.272,8.286-9.943
		c3.453-2.669,7.434-4.672,11.945-6.007c4.51-1.334,9.161-2.003,13.949-2.003c5.524,0,10.862,0.783,16.02,2.348
		c5.154,1.567,9.805,4.191,13.948,7.873L1181.979,309.937z"/>
	<path style="fill:#322A28;" d="M1274.918,383.821h-19.887v-9.114h-0.275c-0.738,1.29-1.682,2.579-2.832,3.866
		c-1.152,1.291-2.555,2.44-4.212,3.453c-1.657,1.014-3.545,1.84-5.662,2.485c-2.12,0.643-4.42,0.967-6.905,0.967
		c-5.248,0-9.508-0.807-12.775-2.417c-3.269-1.61-5.8-3.843-7.595-6.698c-1.795-2.852-2.992-6.214-3.59-10.081
		c-0.6-3.867-0.898-8.056-0.898-12.568v-37.01h20.716v32.868c0,1.934,0.068,3.936,0.207,6.007c0.138,2.071,0.552,3.984,1.243,5.731
		c0.691,1.751,1.748,3.176,3.176,4.281c1.427,1.105,3.474,1.658,6.146,1.658c2.669,0,4.833-0.483,6.49-1.451
		c1.657-0.966,2.922-2.254,3.798-3.867c0.874-1.609,1.45-3.428,1.726-5.455c0.276-2.024,0.415-4.144,0.415-6.353v-33.42h20.715
		V383.821z"/>
	<path style="fill:#322A28;" d="M1291.489,316.704h19.058v8.838h0.276c0.828-1.196,1.91-2.417,3.245-3.66
		c1.334-1.243,2.9-2.37,4.695-3.383c1.796-1.013,3.751-1.84,5.87-2.486c2.117-0.643,4.372-0.966,6.767-0.966
		c4.972,0,9.482,0.852,13.534,2.555c4.05,1.705,7.527,4.098,10.427,7.181c2.9,3.086,5.131,6.746,6.697,10.979
		c1.564,4.236,2.348,8.886,2.348,13.948c0,4.696-0.714,9.184-2.141,13.465c-1.428,4.281-3.453,8.08-6.077,11.394
		c-2.624,3.315-5.823,5.962-9.597,7.941c-3.776,1.979-8.057,2.969-12.843,2.969c-4.33,0-8.356-0.669-12.085-2.003
		c-3.728-1.333-6.791-3.611-9.184-6.836h-0.276v38.669h-20.715V316.704z M1310.548,350.262c0,5.065,1.45,9.162,4.35,12.292
		c2.9,3.131,6.974,4.695,12.222,4.695c5.248,0,9.321-1.564,12.221-4.695c2.9-3.129,4.351-7.227,4.351-12.292
		c0-5.062-1.451-9.159-4.351-12.291c-2.9-3.129-6.974-4.695-12.221-4.695c-5.248,0-9.322,1.566-12.222,4.695
		C1311.997,341.103,1310.548,345.2,1310.548,350.262z"/>
	<path style="fill:#322A28;" d="M1378.492,316.704h19.058v8.838h0.276c0.828-1.196,1.91-2.417,3.245-3.66
		c1.334-1.243,2.9-2.37,4.695-3.383c1.796-1.013,3.751-1.84,5.87-2.486c2.117-0.643,4.372-0.966,6.767-0.966
		c4.972,0,9.482,0.852,13.534,2.555c4.05,1.705,7.527,4.098,10.427,7.181c2.9,3.086,5.131,6.746,6.697,10.979
		c1.564,4.236,2.348,8.886,2.348,13.948c0,4.696-0.714,9.184-2.141,13.465c-1.428,4.281-3.453,8.08-6.077,11.394
		c-2.624,3.315-5.823,5.962-9.597,7.941c-3.776,1.979-8.057,2.969-12.843,2.969c-4.33,0-8.356-0.669-12.085-2.003
		c-3.728-1.333-6.791-3.611-9.183-6.836h-0.276v38.669h-20.715V316.704z M1397.55,350.262c0,5.065,1.45,9.162,4.35,12.292
		c2.9,3.131,6.974,4.695,12.222,4.695c5.248,0,9.321-1.564,12.221-4.695c2.9-3.129,4.351-7.227,4.351-12.292
		c0-5.062-1.451-9.159-4.351-12.291c-2.9-3.129-6.974-4.695-12.221-4.695c-5.248,0-9.322,1.566-12.222,4.695
		C1399,341.103,1397.55,345.2,1397.55,350.262z"/>
	<path style="fill:#322A28;" d="M1461.075,350.262c0-5.338,0.966-10.172,2.9-14.501c1.933-4.326,4.579-8.031,7.941-11.116
		c3.359-3.084,7.319-5.456,11.876-7.112c4.558-1.658,9.413-2.486,14.57-2.486c5.155,0,10.012,0.829,14.57,2.486
		c4.558,1.656,8.515,4.028,11.877,7.112c3.359,3.085,6.007,6.791,7.941,11.116c1.933,4.329,2.9,9.162,2.9,14.501
		c0,5.341-0.967,10.174-2.9,14.501c-1.934,4.329-4.582,8.034-7.941,11.117c-3.362,3.086-7.319,5.455-11.877,7.112
		c-4.558,1.658-9.415,2.486-14.57,2.486c-5.157,0-10.012-0.829-14.57-2.486c-4.557-1.658-8.516-4.026-11.876-7.112
		c-3.362-3.083-6.008-6.789-7.941-11.117C1462.041,360.436,1461.075,355.603,1461.075,350.262z M1481.79,350.262
		c0,5.065,1.451,9.162,4.351,12.292c2.9,3.131,6.974,4.695,12.221,4.695c5.248,0,9.322-1.564,12.222-4.695
		c2.9-3.129,4.35-7.227,4.35-12.292c0-5.062-1.45-9.159-4.35-12.291c-2.9-3.129-6.974-4.695-12.222-4.695
		c-5.248,0-9.321,1.566-12.221,4.695C1483.24,341.103,1481.79,345.2,1481.79,350.262z"/>
	<path style="fill:#322A28;" d="M1547.799,316.704h20.716v10.772h0.276c2.209-4.144,4.833-7.251,7.872-9.322
		c3.038-2.071,6.857-3.107,11.462-3.107c1.196,0,2.393,0.047,3.591,0.138c1.196,0.093,2.3,0.276,3.314,0.552v18.921
		c-1.474-0.46-2.924-0.806-4.35-1.037c-1.429-0.228-2.924-0.345-4.488-0.345c-3.96,0-7.091,0.552-9.391,1.657
		c-2.302,1.105-4.073,2.648-5.317,4.627c-1.243,1.981-2.049,4.35-2.416,7.112c-0.37,2.762-0.552,5.8-0.552,9.114v28.035h-20.716
		V316.704z"/>
	<path style="fill:#322A28;" d="M1649.718,333.276h-18.229v22.372c0,1.842,0.09,3.522,0.276,5.041
		c0.183,1.519,0.598,2.831,1.243,3.936c0.643,1.105,1.633,1.957,2.969,2.555c1.333,0.6,3.107,0.898,5.317,0.898
		c1.105,0,2.555-0.115,4.35-0.346c1.795-0.229,3.153-0.759,4.074-1.588v17.263c-2.302,0.828-4.695,1.38-7.181,1.657
		c-2.486,0.276-4.926,0.415-7.319,0.415c-3.5,0-6.721-0.37-9.668-1.105c-2.947-0.736-5.524-1.91-7.733-3.522
		c-2.21-1.609-3.936-3.705-5.179-6.283c-1.243-2.577-1.864-5.707-1.864-9.391v-31.901h-13.258v-16.572h13.258v-19.887h20.715v19.887
		h18.229V333.276z"/>
</g>
<g>
	<g>
		<path style="fill:#40A87B;" d="M1926.505,2007.869c0,0,26.568-105.977,92.794-138.684
			c66.227-32.707,136.911,12.071,118.962,59.156c-15.477,40.601-79.117-9.322-128.633,10.31
			c-49.516,19.632-57.321,69.218-57.321,69.218H1926.505z"/>
		<path style="fill:none;stroke:#6ADB6A;stroke-width:2.9842;stroke-miterlimit:10;" d="M2125.459,1900.105
			c0,0-71.078-40.507-123.814-3.057c-52.735,37.45-69.425,110.821-69.425,110.821"/>
		
			<line style="fill:none;stroke:#6ADB6A;stroke-width:2.9842;stroke-miterlimit:10;" x1="2113.995" y1="1881.161" x2="2097.458" y2="1888.37"/>
		
			<line style="fill:none;stroke:#6ADB6A;stroke-width:2.9842;stroke-miterlimit:10;" x1="2090.112" y1="1865.712" x2="2057.173" y2="1881.161"/>
		
			<line style="fill:none;stroke:#6ADB6A;stroke-width:2.9842;stroke-miterlimit:10;" x1="2040.624" y1="1865.712" x2="2023.488" y2="1885.955"/>
		
			<line style="fill:none;stroke:#6ADB6A;stroke-width:2.9842;stroke-miterlimit:10;" x1="2008.142" y1="1879.278" x2="2000.439" y2="1897.92"/>
		
			<line style="fill:none;stroke:#6ADB6A;stroke-width:2.9842;stroke-miterlimit:10;" x1="2105.727" y1="1925.9" x2="2080.34" y2="1883.9"/>
		
			<line style="fill:none;stroke:#6ADB6A;stroke-width:2.9842;stroke-miterlimit:10;" x1="2060.878" y1="1919.881" x2="2037.594" y2="1882.487"/>
		
			<line style="fill:none;stroke:#6ADB6A;stroke-width:2.9842;stroke-miterlimit:10;" x1="2021.326" y1="1914.149" x2="1986.322" y2="1909.799"/>
		
			<line style="fill:none;stroke:#6ADB6A;stroke-width:2.9842;stroke-miterlimit:10;" x1="1980.575" y1="1935.358" x2="1960.51" y2="1941.945"/>
	</g>
	<g>
		<path style="fill:#6ADB6A;" d="M1914.621,2004.532c0,0-18.747-355.231,150.924-309.454
			c169.671,45.777-132.353,237.23-132.096,309.454H1914.621z"/>
		<path style="fill:none;stroke:#40A87B;stroke-width:2.9842;stroke-miterlimit:10;" d="M1921.478,2004.532
			c0,0,5.924-185.597,126.871-277.368"/>
		
			<line style="fill:none;stroke:#40A87B;stroke-width:2.9842;stroke-miterlimit:10;" x1="1995.302" y1="1780.979" x2="1998.324" y2="1716.98"/>
		
			<line style="fill:none;stroke:#40A87B;stroke-width:2.9842;stroke-miterlimit:10;" x1="2090.193" y1="1754.461" x2="2008.444" y2="1765.116"/>
		
			<line style="fill:none;stroke:#40A87B;stroke-width:2.9842;stroke-miterlimit:10;" x1="2058.402" y1="1809.083" x2="1971.966" y2="1819.153"/>
		
			<line style="fill:none;stroke:#40A87B;stroke-width:2.9842;stroke-miterlimit:10;" x1="2015.184" y1="1863.212" x2="1948.422" y2="1872.647"/>
		
			<line style="fill:none;stroke:#40A87B;stroke-width:2.9842;stroke-miterlimit:10;" x1="1942.018" y1="1812.635" x2="1957.32" y2="1849.812"/>
		
			<line style="fill:none;stroke:#40A87B;stroke-width:2.9842;stroke-miterlimit:10;" x1="1967.162" y1="1752.297" x2="1980.208" y2="1804.639"/>
		
			<line style="fill:none;stroke:#40A87B;stroke-width:2.9842;stroke-miterlimit:10;" x1="1927.733" y1="1874.7" x2="1939.924" y2="1898.999"/>
		
			<line style="fill:none;stroke:#40A87B;stroke-width:2.9842;stroke-miterlimit:10;" x1="1980.208" y1="1913.391" x2="1932.368" y2="1928.474"/>
	</g>
	<path style="fill:#E5F0F8;" d="M1770.856,1997.109c0,0,555.303-1563.654-463.739-1457.811
		c-436.462,45.333-354.983,320.359-547.749,577.688c-124.949,166.798-365.263,30.347-455.318,176.1s15.774,561.35,52.898,704.023
		H1770.856z"/>
	<g>
		<path style="fill:#586773;" d="M1401.425,1990.061H572.801c-30.111,0-54.521-24.41-54.521-54.521V752.476
			c0-30.111,24.41-54.521,54.521-54.521h828.624c30.111,0,54.521,24.41,54.521,54.521V1935.54
			C1455.946,1965.651,1431.536,1990.061,1401.425,1990.061z"/>
		<path style="fill:#93ACBF;" d="M1432.821,1990.061H604.196c-30.111,0-54.521-24.41-54.521-54.521V752.476
			c0-30.111,24.41-54.521,54.521-54.521h828.624c30.111,0,54.521,24.41,54.521,54.521V1935.54
			C1487.342,1965.651,1462.932,1990.061,1432.821,1990.061z"/>
		<path style="fill:#586773;" d="M1433.014,1875.775H603.974c-0.668,0-1.336-0.111-1.948-0.334c-2.894-0.779-5.009-3.45-5.009-6.622
			V752.283c0-3.897,3.116-7.012,6.956-7.012h829.041c3.895,0,7.012,3.115,7.012,7.012v1116.535
			C1440.026,1872.658,1436.91,1875.775,1433.014,1875.775z"/>
		<rect x="605.802" y="754.064" style="fill:#E5F0F8;" width="825.402" height="1112.925"/>
		<path style="fill:#BBDBF3;" d="M926.215,1933.083L926.215,1933.083c0-13.234,10.827-24.061,24.061-24.061h136.466
			c13.234,0,24.061,10.828,24.061,24.061v0c0,13.234-10.828,24.061-24.061,24.061H950.276
			C937.042,1957.144,926.215,1946.317,926.215,1933.083z"/>
		<rect x="605.802" y="754.064" style="fill:#BBDBF3;" width="825.403" height="76.995"/>
		
			<ellipse transform="matrix(0.2312 -0.9729 0.9729 0.2312 -270.5864 1242.6852)" style="fill:#FFFFFF;" cx="651.042" cy="792.562" rx="15.041" ry="15.041"/>
		
			<ellipse transform="matrix(0.2312 -0.9729 0.9729 0.2312 -237.1186 1285.0402)" style="fill:#FFFFFF;" cx="694.577" cy="792.562" rx="15.041" ry="15.041"/>
		
			<ellipse transform="matrix(0.2312 -0.9729 0.9729 0.2312 -203.6507 1327.3951)" style="fill:#FFFFFF;" cx="738.112" cy="792.562" rx="15.041" ry="15.041"/>
		<g>
			<g>
				
					<rect x="610.495" y="1352.488" transform="matrix(-0.9135 -0.4068 0.4068 -0.9135 636.7529 2880.3025)" style="fill:#F2BB16;" width="28.081" height="39.96"/>
			</g>
			<g>
				<polygon style="fill:#F2BB16;" points="625.803,1334.906 651.55,1346.371 668.308,1320.631 633.53,1305.145 				"/>
			</g>
			<g>
				<path style="fill:#F9E181;" d="M596.105,1355.67l59.936,26.69c2.792,1.244,6.064-0.012,7.308-2.805l10.215-22.939
					c1.244-2.793-0.012-6.064-2.805-7.308l-59.936-26.69c-2.793-1.244-6.065,0.012-7.308,2.805l-10.215,22.939
					C592.057,1351.155,593.312,1354.427,596.105,1355.67z"/>
			</g>
			<g>
				<g>
					
						<rect x="649.44" y="1362.854" transform="matrix(0.4065 -0.9136 0.9136 0.4065 -854.8604 1412.3041)" style="fill:#F2BB16;" width="20.522" height="2.666"/>
				</g>
				<g>
					
						<rect x="640.683" y="1358.953" transform="matrix(0.4068 -0.9135 0.9135 0.4068 -856.5079 1401.5054)" style="fill:#F2BB16;" width="20.518" height="2.666"/>
				</g>
				<g>
					
						<rect x="631.926" y="1355.054" transform="matrix(0.4068 -0.9135 0.9135 0.4068 -858.1396 1391.1958)" style="fill:#F2BB16;" width="20.521" height="2.666"/>
				</g>
				<g>
					
						<rect x="623.172" y="1351.155" transform="matrix(0.4068 -0.9135 0.9135 0.4068 -859.7714 1380.8901)" style="fill:#F2BB16;" width="20.518" height="2.666"/>
				</g>
				<g>
					
						<rect x="614.415" y="1347.256" transform="matrix(0.4068 -0.9135 0.9135 0.4068 -861.4032 1370.5748)" style="fill:#F2BB16;" width="20.521" height="2.666"/>
				</g>
				<g>
					
						<rect x="605.658" y="1343.359" transform="matrix(0.4068 -0.9135 0.9135 0.4068 -863.0369 1360.2546)" style="fill:#F2BB16;" width="20.521" height="2.666"/>
				</g>
				<g>
					
						<rect x="596.903" y="1339.458" transform="matrix(0.4068 -0.9135 0.9135 0.4068 -864.6668 1349.9464)" style="fill:#F2BB16;" width="20.522" height="2.666"/>
				</g>
			</g>
			<g>
				<path style="fill:#F9E181;" d="M627.43,1303.414l46.491,20.703c1.669,0.743,3.625-0.007,4.369-1.677l0.164-0.368
					c0.743-1.669-0.007-3.625-1.677-4.369l-46.492-20.703c-1.669-0.743-3.625,0.007-4.369,1.677l-0.164,0.368
					C625.01,1300.715,625.761,1302.671,627.43,1303.414z"/>
			</g>
			<g>
				
					<rect x="335.837" y="1357.267" transform="matrix(-0.8988 0.4383 -0.4383 -0.8988 1268.0255 2461.7869)" style="fill:#F2BB16;" width="28.081" height="39.96"/>
			</g>
			<g>
				<polygon style="fill:#F2BB16;" points="321.918,1352.131 347.25,1339.777 338.304,1310.395 304.086,1327.082 				"/>
			</g>
			<g>
				<path style="fill:#F9E181;" d="M318.735,1388.228l58.972-28.758c2.748-1.34,3.889-4.654,2.549-7.401l-11.006-22.569
					c-1.34-2.748-4.654-3.889-7.401-2.549l-58.972,28.758c-2.748,1.34-3.889,4.653-2.549,7.401l11.006,22.57
					C312.673,1388.427,315.987,1389.568,318.735,1388.228z"/>
			</g>
			<g>
				<g>
					
						<rect x="364.804" y="1334.725" transform="matrix(0.8987 -0.4386 0.4386 0.8987 -552.7654 296.8154)" style="fill:#F2BB16;" width="2.666" height="20.522"/>
				</g>
				<g>
					
						<rect x="356.186" y="1338.929" transform="matrix(0.8988 -0.4383 0.4383 0.8988 -555.1506 293.1758)" style="fill:#F2BB16;" width="2.666" height="20.518"/>
				</g>
				<g>
					
						<rect x="347.571" y="1343.128" transform="matrix(0.8988 -0.4383 0.4383 0.8988 -557.8579 289.8206)" style="fill:#F2BB16;" width="2.666" height="20.522"/>
				</g>
				<g>
					
						<rect x="338.957" y="1347.33" transform="matrix(0.8988 -0.4383 0.4383 0.8988 -560.5759 286.4745)" style="fill:#F2BB16;" width="2.666" height="20.518"/>
				</g>
				<g>
					
						<rect x="330.342" y="1351.53" transform="matrix(0.8988 -0.4383 0.4383 0.8988 -563.2831 283.1193)" style="fill:#F2BB16;" width="2.666" height="20.522"/>
				</g>
				<g>
					
						<rect x="321.728" y="1355.732" transform="matrix(0.8988 -0.4383 0.4383 0.8988 -565.9963 279.7691)" style="fill:#F2BB16;" width="2.666" height="20.522"/>
				</g>
				<g>
					
						<rect x="313.112" y="1359.932" transform="matrix(0.8988 -0.4383 0.4383 0.8988 -568.7084 276.418)" style="fill:#F2BB16;" width="2.666" height="20.522"/>
				</g>
			</g>
			<g>
				<path style="fill:#F9E181;" d="M298.839,1330.642l45.743-22.307c1.642-0.801,2.325-2.782,1.524-4.424l-0.177-0.362
					c-0.801-1.643-2.782-2.325-4.424-1.524l-45.743,22.307c-1.642,0.801-2.325,2.782-1.524,4.424l0.176,0.362
					C295.216,1330.761,297.197,1331.443,298.839,1330.642z"/>
			</g>
			<g>
				
					<rect x="472.636" y="1324.432" transform="matrix(-0.9998 0.0174 -0.0174 -0.9998 996.6622 2680.1572)" style="fill:#F2BB16;" width="28.081" height="39.96"/>
			</g>
			<g>
				
					<rect x="477.585" y="1209.518" transform="matrix(-0.9998 0.0174 -0.0174 -0.9998 990.1027 2428.7246)" style="fill:#F2BB16;" width="13.81" height="18.3"/>
			</g>
			<g>
				<circle style="fill:#F9E181;" cx="492.33" cy="1669.36" r="320.699"/>
			</g>
			<g>
				<path style="fill:#F2BB16;" d="M497.445,1963.575c162.232-2.822,291.923-137.104,289.101-299.337
					c-2.822-162.232-137.104-291.914-299.336-289.092s-291.914,137.095-289.092,299.327
					C200.939,1836.707,335.212,1966.397,497.445,1963.575z"/>
			</g>
			<g>
				<path style="fill:#F9E181;" d="M437.473,1247.838l0.73,41.966c0.037,2.136,1.457,4.034,3.501,4.746l44.376,15.037l43.828-16.572
					c2.015-0.783,3.369-2.729,3.332-4.865l-0.73-41.966c-0.034-1.922-1.13-3.612-2.855-4.436l-42.785-21.794
					c-1.507-0.722-3.214-0.692-4.805,0.083l-42.001,23.269C438.479,1244.189,437.44,1245.916,437.473,1247.838z M446.592,1250.03
					l38.086-21.065l38.798,19.728l0.639,36.734l-38.202,14.55l-38.682-13.213L446.592,1250.03z"/>
			</g>
			<g>
				<path style="fill:#E5F0F8;" d="M730.768,1817.847c-48.757,78.228-134.715,130.855-233.499,132.471
					c-155.063,2.706-283.235-121.144-285.982-276.053c-1.324-77.939,29.398-149.128,79.921-200.958
					c49.891-51.339,119.204-83.756,196.287-84.982c154.867-2.593,283.192,121.299,285.785,276.166
					C774.215,1720.727,758.662,1773.462,730.768,1817.847z"/>
			</g>
			<g>
				<path style="fill:#FFFFFF;" d="M492.437,1669.36l-2.575-281.016c-0.792,0.006-1.573-0.034-2.367-0.02
					c-77.082,1.226-146.396,33.643-196.287,84.982c-27.738,44.427-43.446,97.12-42.513,153.356
					c2.748,154.909,131.074,278.801,285.982,276.053c76.928-1.268,146.241-33.685,196.09-84.87
					c27.081-43.092,42.393-94.088,42.416-148.486H492.437z"/>
			</g>
			<g>
				<path style="fill:#FFFFFF;" d="M773.184,1669.36c0-1.631,0.124-3.233,0.097-4.87c-2.58-154.073-129.618-277.438-283.419-276.145
					l2.575,281.016H773.184z"/>
			</g>
			<g>
				<path style="fill:#BBDBF3;" d="M474.84,1423.166c0.127,7.292,6.141,13.1,13.433,12.974c7.292-0.127,13.1-6.141,12.974-13.433
					c-0.127-7.292-6.141-13.1-13.433-12.974C480.522,1409.86,474.714,1415.874,474.84,1423.166z"/>
			</g>
			<g>
				
					<ellipse transform="matrix(0.3073 -0.9516 0.9516 0.3073 -960.2501 1664.9402)" style="fill:#BBDBF3;" cx="663.548" cy="1492.081" rx="13.205" ry="13.205"/>
			</g>
			<g>
				<path style="fill:#BBDBF3;" d="M738.526,1651.87c-7.292,0.127-13.1,6.141-12.974,13.433c0.127,7.292,6.141,13.1,13.433,12.974
					c7.292-0.127,13.1-6.141,12.974-13.433C751.832,1657.552,745.818,1651.743,738.526,1651.87z"/>
			</g>
			<g>
				
					<ellipse transform="matrix(0.2693 -0.9631 0.9631 0.2693 -1283.288 1989.8711)" style="fill:#BBDBF3;" cx="669.612" cy="1840.578" rx="13.205" ry="13.205"/>
			</g>
			<g>
				<polygon style="fill:#F2BB16;" points="471.951,1309.833 500.131,1309.343 504.441,1278.933 466.376,1279.595 				"/>
			</g>
			<g>
				
					<ellipse transform="matrix(0.0556 -0.9985 0.9985 0.0556 -1443.8344 2305.0225)" style="fill:#BBDBF3;" cx="496.619" cy="1915.786" rx="13.205" ry="13.205"/>
			</g>
			<g>
				
					<ellipse transform="matrix(0.9976 -0.069 0.069 0.9976 -126.7387 26.5792)" style="fill:#BBDBF3;" cx="321.115" cy="1846.641" rx="13.205" ry="13.205"/>
			</g>
			<g>
				
					<ellipse transform="matrix(0.1553 -0.9879 0.9879 0.1553 -1445.6248 1656.5896)" style="fill:#BBDBF3;" cx="245.907" cy="1673.649" rx="13.205" ry="13.205"/>
			</g>
			<g>
				
					<ellipse transform="matrix(0.3106 -0.9505 0.9505 0.3106 -1206.8555 1332.3302)" style="fill:#BBDBF3;" cx="315.051" cy="1498.144" rx="13.205" ry="13.205"/>
			</g>
			<g>
				
					<ellipse transform="matrix(0.6599 -0.7514 0.7514 0.6599 -1086.8854 937.7662)" style="fill:#F9E181;" cx="492.331" cy="1669.361" rx="23.582" ry="23.582"/>
			</g>
			<g>
				<polygon style="fill:#F9E181;" points="498.318,1498.385 488.921,1473.313 480.398,1498.697 486.215,1498.595 489.187,1669.417 
					495.479,1669.307 492.507,1498.486 				"/>
			</g>
			<g>
				<polygon style="fill:#F9E181;" points="492.329,1666.217 492.328,1672.51 598.827,1672.516 598.828,1678.16 624.06,1669.203 
					598.828,1660.238 598.828,1666.223 				"/>
			</g>
			<g>
				<path style="fill:#F9E181;" d="M453.811,1341.204l65.6-1.141c3.056-0.053,5.491-2.574,5.438-5.63l-0.437-25.106
					c-0.053-3.057-2.574-5.491-5.63-5.438l-65.6,1.141c-3.056,0.053-5.491,2.574-5.438,5.63l0.437,25.106
					C448.233,1338.822,450.754,1341.257,453.811,1341.204z"/>
			</g>
			<g>
				<g>
					
						<rect x="513.714" y="1311.784" transform="matrix(0.9998 -0.0177 0.0177 0.9998 -23.2599 9.299)" style="fill:#F2BB16;" width="2.666" height="20.522"/>
				</g>
				<g>
					
						<rect x="504.128" y="1311.953" transform="matrix(0.9998 -0.0173 0.0173 0.9998 -22.852 8.9638)" style="fill:#F2BB16;" width="2.666" height="20.518"/>
				</g>
				<g>
					
						<rect x="494.545" y="1312.118" transform="matrix(0.9998 -0.0173 0.0173 0.9998 -22.8592 8.7988)" style="fill:#F2BB16;" width="2.666" height="20.521"/>
				</g>
				<g>
					
						<rect x="484.962" y="1312.286" transform="matrix(0.9998 -0.0173 0.0173 0.9998 -22.8672 8.634)" style="fill:#F2BB16;" width="2.666" height="20.518"/>
				</g>
				<g>
					
						<rect x="475.379" y="1312.451" transform="matrix(0.9998 -0.0173 0.0173 0.9998 -22.8678 8.4665)" style="fill:#F2BB16;" width="2.666" height="20.521"/>
				</g>
				<g>
					
						<rect x="465.796" y="1312.619" transform="matrix(0.9998 -0.0173 0.0173 0.9998 -22.8722 8.3003)" style="fill:#F2BB16;" width="2.666" height="20.521"/>
				</g>
				<g>
					
						<rect x="456.213" y="1312.784" transform="matrix(0.9998 -0.0173 0.0173 0.9998 -22.8701 8.1318)" style="fill:#F2BB16;" width="2.666" height="20.521"/>
				</g>
			</g>
			<g>
				<path style="fill:#F9E181;" d="M460.117,1280.605l50.885-0.885c1.827-0.032,3.283-1.539,3.251-3.366l-0.007-0.402
					c-0.032-1.827-1.539-3.282-3.366-3.251l-50.885,0.885c-1.827,0.032-3.283,1.539-3.251,3.366l0.007,0.402
					C456.783,1279.181,458.289,1280.636,460.117,1280.605z"/>
			</g>
			<g>
				<path style="fill:#F9E181;" d="M477.707,1211.329l13.305-0.231c0.932-0.016,1.681-0.792,1.664-1.723l0,0
					c-0.016-0.932-0.792-1.681-1.723-1.664l-13.305,0.231c-0.932,0.016-1.681,0.792-1.664,1.723l0,0
					C476,1210.596,476.775,1211.345,477.707,1211.329z"/>
			</g>
		</g>
		<g>
			<polygon style="fill:#F5AC97;" points="1176.176,1029.344 1042.293,1027.07 1049.306,886.49 1052.655,819.264 1052.845,815.916 
				1157.6,771.877 1161.012,819.391 1163.539,854.014 			"/>
			<path style="fill:#088CFC;" d="M1165.629,1415.659c0,0-2.242,12.368-6.061,33.424c-1.471,8.093-3.188,17.518-5.08,27.994
				c-12.578,69.616-33.634,186.74-51.573,289.325v0.105c-6.306,36.227-12.263,70.632-17.308,100.482H865.723l31.042-256.777
				l16.081-133.136l1.507-12.578l141.649-27.538l30.656-5.956L1165.629,1415.659z"/>
			<polygon style="fill:#088CFC;" points="1324.201,1866.989 1113.286,1866.989 1102.915,1766.436 1102.915,1766.401 
				1098.185,1720.329 1073.625,1684.032 1073.31,1611.614 1072.714,1477.076 1072.609,1454.934 1086.834,1453.988 
				1159.568,1449.083 1184.899,1447.366 1207.181,1445.895 1279.39,1441.025 1283.174,1477.076 1292.668,1567.364 1296.487,1603.59 
							"/>
			<path style="fill:#F5AC97;" d="M1110.972,970.553c49.123,1.082,73.033-25.867,78.181-37.751l-21.358-5.769l-120.315-3.821
				l-14.595,4.672C1039.045,939.352,1060.785,969.448,1110.972,970.553z"/>
			<path style="fill:#EA9D85;" d="M1372.967,1454.479l-18.44,36.084c-0.778,1.523-0.77,3.329,0.022,4.845l16.572,31.721
				c1.092,2.091,3.44,3.203,5.749,2.724l30.66-6.357c3.999-0.829,7.384,3.003,6.068,6.869l-8.18,24.03
				c-0.562,1.651-1.903,2.917-3.583,3.384l-31.13,8.65c-0.844,0.235-1.734,0.255-2.588,0.06l-64.495-14.73l-34.719-119.608
				l50.48-37.396L1372.967,1454.479z"/>
			<polyline style="fill:none;stroke:#332B27;stroke-width:2.3216;stroke-miterlimit:10;" points="1412.082,1534.82 
				1370.992,1544.79 1354.417,1531.417 			"/>
			<polyline style="fill:none;stroke:#332B27;stroke-width:2.3216;stroke-miterlimit:10;" points="1407.879,1547.168 
				1370.804,1554.585 1346.694,1540.458 			"/>
			<path style="fill:#BBDBF3;" d="M1285.304,1276.186l-2.112,200.893H912.828l1.709-506.474l129.769-46.891
				c1.454,2.665,3.029,5.453,4.967,8.36l0.484,0.606c7.028,8.966,20.477,17.448,58.16,18.296c31.381,0.727,46.77-3.635,55.493-9.33
				l0.121-0.121c4.726-3.15,8.482-9.371,10.663-12.763l121.529,29.484l-8.24,255.661L1285.304,1276.186z"/>
			<path style="fill:#F74242;" d="M1189.152,932.803c0,0-10.51,187.429-8.997,295.766c1.514,108.337,8.997,382.121,8.997,382.121
				s68.61,1.45,131.72-11.329c0,0,0.951-124.032-16.449-209.57c-17.4-85.539-17.12-438.133-17.12-438.133L1189.152,932.803z"/>
			<path style="fill:#F74242;" d="M1547.98,1252.035l-0.54,0.647c-23.738,28.457-66.443,32.318-94.9,8.58l-231.866-193.416
				c-28.457-23.738-32.318-66.443-8.58-94.9l0.54-0.648c23.738-28.457,66.443-32.318,94.9-8.58l231.866,193.416
				C1567.857,1180.874,1571.718,1223.578,1547.98,1252.035z"/>
			<path style="fill:#322A28;" d="M1183.885,740.589c0,0,17.8-44.439-4.013-40.37S1183.885,740.589,1183.885,740.589z"/>
			<path style="fill:#F74242;" d="M1032.885,927.885c0,0,50.646,262.567,52.348,393.07s1.702,130.502,1.702,130.502l-5.8,159.232
				c0,0-141.105,17.492-190.437-2.629c0,0-3.444-189.016,9.667-255.94c13.111-66.924,14.173-381.514,14.173-381.514
				L1032.885,927.885z"/>
			<polygon style="fill:#E99C84;" points="1167.232,905.249 1091.974,850.375 1163.539,854.014 			"/>
			<path style="fill:#F5AC97;" d="M437.966,1163.529c1.954-5.619,38.01-6.06,63.11,1.854c21.279,6.682,68.676,27.37,82.603,33.567
				l-24.333,85.25c-8.851-1.342-27.202-2.324-35.551-4.11c-22.216-4.753-64.897-21.983-63.867-30.263
				c0.954-8.209,39.761-1.244,37.347-5.052c-2.415-3.807-31.093-18.504-43.976-19.337c-12.953-0.908-40.916,1.725-44.989-4.624
				c-4.145-6.425,3.448-14.611,3.448-14.611s-10.587,2.241-10.775-4.623c-0.189-6.864,15.408-14.469,15.408-14.469
				s-5.687,1.909-4.024-5.69c1.737-7.67,28.777-10.993,28.777-10.993S435.865,1169.143,437.966,1163.529z"/>
			
				<path style="fill:none;stroke:#FFFFFF;stroke-width:3.5848;stroke-linecap:round;stroke-linejoin:round;stroke-miterlimit:10;" d="
				M1058.901,1572.144c0,0-102.71,17.01-150.561,0"/>
			<path style="fill:#F5AC97;" d="M1182.375,705.648c0,0,4.26,44.79,7.281,76.564l2.498,26.261
				c1.973,20.749-0.919,52.081-23.594,61.422c-22.599,9.334-55.603,2.661-80.267-19.484
				c-24.673-22.221-84.713-127.142-19.581-174.205C1133.921,629.137,1179.748,695.082,1182.375,705.648z"/>
			<path style="fill:#322A28;" d="M1050.484,856.481c0,0,16.974-28.377,15.827-43.837c-1.147-15.46,16.575-32.855,13.716-56.599
				c-2.858-23.744-4.002-33.748,8.289-32.605c12.291,1.143,99.184,20.58,101.47-20.58c2.287-41.16-100.378-80.89-141.798-11.147
				c0,0-27.539-1.261-19.125,57.125C1037.276,807.221,1049.523,817.166,1050.484,856.481z"/>
			<g>
				<path style="fill:#F5AC97;" d="M1076.576,801.357c9.307,11.915,12.319,20.638,2.965,27.945
					c-9.355,7.307-26.106,6.873-35.413-5.042c-9.307-11.915-9.268-27.497,0.087-34.805
					C1053.569,782.148,1067.269,789.442,1076.576,801.357z"/>
			</g>
			<path style="fill:#332B27;" d="M1125.889,769.813c0.458,4.813,3.353,8.475,6.466,8.178c3.114-0.296,5.267-4.438,4.809-9.251
				c-0.458-4.813-3.353-8.474-6.466-8.178C1127.584,760.859,1125.431,765.001,1125.889,769.813z"/>
			<path style="fill:#F74242;" d="M1387.02,1480.689l167.27-233.407c19.038-28.319,8.448-69.155-23.618-90.833
				c-32.084-21.597-73.979-16.105-93.099,12.196l-160.099,246.644L1387.02,1480.689z"/>
			
				<ellipse transform="matrix(0.9955 -0.0947 0.0947 0.9955 -67.116 115.008)" style="fill:#332B27;" cx="1178.467" cy="764.813" rx="5.663" ry="8.754"/>
			<path style="fill:#E99C84;" d="M1137.871,800.741c-1.06,4.563-9.274,6.552-18.346,4.444c-9.072-2.108-15.566-7.516-14.506-12.079
				c1.06-4.563,9.274-6.552,18.346-4.444C1132.438,790.771,1138.932,796.179,1137.871,800.741z"/>
			<path style="fill:#E99C84;" d="M1189.656,782.212l1.624,17.074c-7.116,1.526-13.201,0.096-14.554-3.56
				C1175.232,791.386,1180.993,785.353,1189.656,782.212z"/>
			
				<path style="fill:none;stroke:#E99C84;stroke-width:3.4926;stroke-linecap:round;stroke-linejoin:round;stroke-miterlimit:10;" d="
				M1054.498,814.163c7.719-2.232,14.323-1.362,14.323-1.362c-8.251-12.444-18.338-9.945-18.338-9.945"/>
			<path style="fill:none;stroke:#322A28;stroke-width:2.2341;stroke-miterlimit:10;" d="M1150.148,770.868l13.545,29.723
				c1.372,3.011,0.517,6.57-2.073,8.63l-4.011,3.188l-4.11,3.267"/>
			<path style="fill:none;stroke:#322A28;stroke-width:2.2341;stroke-miterlimit:10;" d="M1117.878,760.693
				c0,0,9.336-11.166,21.69-9.026"/>
			<path style="fill:none;stroke:#322A28;stroke-width:2.2341;stroke-miterlimit:10;" d="M1187.915,748.836
				c0,0-8.97-7.044-19.786-0.703"/>
			<path style="fill:#F74242;" d="M810.141,1387.714l0.801,0.265c35.182,11.639,73.491-7.623,85.131-42.805l94.838-286.666
				c11.639-35.183-7.623-73.491-42.806-85.131l-0.8-0.265c-35.182-11.64-73.491,7.623-85.131,42.805l-94.838,286.666
				C755.696,1337.765,774.959,1376.074,810.141,1387.714z"/>
			<path style="fill:#F74242;" d="M545.688,1302.026l273.613,88.447c32.909,9.021,68.242-14.03,78.572-51.332
				c10.247-37.294-8.31-75.255-41.227-84.359l-284.055-76.602L545.688,1302.026z"/>
			
				<polyline style="fill:none;stroke:#FFFFFF;stroke-width:1.8175;stroke-linecap:round;stroke-linejoin:round;stroke-miterlimit:10;" points="
				1102.922,1766.492 1119.764,1710.259 1135.902,1710.259 1161.598,1640.658 			"/>
			<path style="fill:#FFFFFF;" d="M1137.757,824.26l25.427,8.94c0,0-5.222,12.977-18.064,9.256S1137.757,824.26,1137.757,824.26z"/>
			
				<path style="fill:none;stroke:#FFFFFF;stroke-width:3.5848;stroke-linecap:round;stroke-linejoin:round;stroke-miterlimit:10;" d="
				M1011.227,953.615c0,0,19.292,160.47,31.066,239.738c11.774,79.268,13.812,274.651,16.608,347.04"/>
			
				<path style="fill:none;stroke:#FFFFFF;stroke-width:3.5848;stroke-linecap:round;stroke-linejoin:round;stroke-miterlimit:10;" d="
				M1213.57,984.548c0,0-10.191,163.851-13.796,236.354c-3.604,72.502,13.796,327.707,13.796,327.707"/>
			
				<path style="fill:none;stroke:#FFFFFF;stroke-width:3.5848;stroke-linecap:round;stroke-linejoin:round;stroke-miterlimit:10;" d="
				M1312.172,1562.626c0,0-49.301,16.434-98.602,3.383"/>
			<circle style="fill:#FFFFFF;" cx="1222.754" cy="1280.837" r="9.184"/>
			<circle style="fill:#FFFFFF;" cx="1222.754" cy="1365.2" r="9.184"/>
			<circle style="fill:#FFFFFF;" cx="1229.52" cy="1431.858" r="9.184"/>
			<circle style="fill:#FFFFFF;" cx="1234.354" cy="1509.797" r="9.184"/>
			
				<ellipse transform="matrix(0.9906 -0.1367 0.1367 0.9906 -100.8217 152.3156)" style="fill:#088CFC;" cx="1058.266" cy="810.02" rx="22.379" ry="31.124"/>
			
				<ellipse transform="matrix(0.9906 -0.1367 0.1367 0.9906 -101.0247 151.3411)" style="fill:#2EC6FC;" cx="1051.074" cy="811.013" rx="15.119" ry="23.22"/>
			<path style="fill:none;stroke:#088CFC;stroke-width:3.3951;stroke-miterlimit:10;" d="M1065.652,833.693
				c0,0,33.38,36.028,84.496,30.816"/>
			<ellipse style="fill:#088CFC;" cx="1153.498" cy="864.768" rx="11.285" ry="6.501"/>
			<path style="fill:#088CFC;" d="M1058.266,782.212c0,0-21.093-94.574,46.011-127.833c0,0-22.31-3.613-36.361,14.651
				c0,0-37.945,39.447-25.623,117.502L1058.266,782.212z"/>
		</g>
		
			<line style="fill:none;stroke:#FFFFFF;stroke-width:3.5848;stroke-linecap:round;stroke-linejoin:round;stroke-miterlimit:10;" x1="907.126" y1="1311.763" x2="960.561" y2="1150.245"/>
	</g>
	<g>
		<g>
			<path style="fill:#1D1D1B;" d="M1496.704,1011.036l-25.974,12.114c-5.824,2.719-12.723,0.264-15.564-5.458l-65.989-141.516
				c-2.76-5.905-0.203-12.926,5.702-15.686l25.974-12.114c5.905-2.76,12.926-0.203,15.686,5.702l65.867,141.292
				C1505.166,1001.275,1502.609,1008.296,1496.704,1011.036z"/>
			<polygon style="fill:#0775EF;" points="1456.344,1020.208 1454.315,1019.761 1416.288,1011.299 1406.487,1009.128 
				1406.304,1008.742 1391.816,977.676 1364.341,918.728 1378.403,891.658 1387.879,873.416 1389.178,876.176 1455.167,1017.691 			
				"/>
			<path style="fill:#2EC6FC;" d="M1406.324,1008.742h-0.02l-19.622,9.172c-1.481,0.69-3.247,0.041-3.937-1.441l-39.549-84.84
				c-0.69-1.481-0.061-3.247,1.42-3.937l19.135-8.908v-0.02l0.507-0.223l0.081,0.183l27.536,59.009c0,0,0,0,0,0.02
				L1406.324,1008.742z"/>
			<path style="fill:#93ACBF;" d="M1889.21,876.054l-65.928,141.394c-2.739,5.905-9.76,8.462-15.665,5.702l-25.974-12.114
				c-5.905-2.739-8.462-9.76-5.722-15.665l65.888-141.292c2.76-5.905,9.781-8.462,15.686-5.702l25.974,12.114
				C1889.332,863.229,1891.889,870.169,1889.21,876.054z"/>
			<path style="fill:#0775EF;" d="M1914.007,918.728l-0.447,0.933v0.02c-0.02,0.02-0.041,0.061-0.041,0.081v0.02l-24.614,52.779
				c-0.02,0.041-0.02,0.061-0.041,0.081c0,0.02-0.02,0.02-0.02,0.04c0,0.02-0.02,0.02-0.02,0.041c0,0,0,0.02-0.02,0.02
				l-16.761,35.998l-0.183,0.386l-10.694,2.374l-38.088,8.462l-1.076,0.244l1.278-2.76l65.928-141.394l1.238-2.638l8.99,17.289
				l14.488,27.861L1914.007,918.728z"/>
			<path style="fill:#2EC6FC;" d="M1891.658,1017.905l-19.633-9.155l42.064-90.208l19.633,9.155
				c1.482,0.691,2.124,2.453,1.432,3.936l-39.561,84.839C1894.902,1017.955,1893.14,1018.596,1891.658,1017.905z"/>
			<path style="fill:#0775EF;" d="M1861.167,1011.502c-46.59,55.234-113.391,92.856-188.999,101.5
				c0.102-0.791,0.162-1.603,0.162-2.435v-10.795c0-3.084-0.73-6.006-2.029-8.583c58.806-6.859,111.829-32.69,152.778-71.224
				L1861.167,1011.502z"/>
			<path style="fill:#0775EF;" d="M1929.632,824.066c0,33.076-5.519,64.873-15.706,94.499l-14.488-27.861
				c5.438-21.307,8.32-43.628,8.32-66.639c0-148.537-120.412-268.969-268.949-268.969c-148.537,0-268.969,120.432-268.969,268.969
				c0,23.356,2.983,46.002,8.563,67.592l-14.062,27.069l-0.081-0.183l-0.507,0.223c-10.227-29.687-15.767-61.545-15.767-94.702
				c0-160.63,130.193-290.823,290.823-290.823C1799.419,533.243,1929.632,663.435,1929.632,824.066z"/>
			<path style="fill:#088CFC;" d="M1496.704,1011.036l-25.974,12.114c-5.824,2.719-12.723,0.264-15.564-5.458l-65.989-141.516
				c-2.76-5.905-0.203-12.926,5.702-15.686l25.974-12.114c5.905-2.76,12.926-0.203,15.686,5.702l65.867,141.292
				C1505.166,1001.275,1502.609,1008.296,1496.704,1011.036z"/>
			<path style="fill:#088CFC;" d="M1823.282,1017.448c-2.739,5.905-9.76,8.462-15.665,5.702l-25.974-12.114
				c-5.905-2.739-8.462-9.76-5.722-15.665l65.888-141.292c2.76-5.905,9.781-8.462,15.686-5.702l25.974,12.114
				c5.864,2.739,8.421,9.679,5.742,15.564L1823.282,1017.448z"/>
			<path style="fill:#2EC6FC;" d="M1672.331,1099.772v10.795c0,0.832-0.061,1.644-0.162,2.435c-1.136,9.01-8.543,16.132-17.837,16.7
				l-60.125,3.714c-11.039,0.69-20.373-8.076-20.373-19.135v-18.222c0-3.774,1.075-7.265,2.942-10.227
				c3.612-5.722,10.146-9.375,17.431-8.928l60.125,3.713c7.041,0.446,13.007,4.627,15.97,10.572
				C1671.6,1093.766,1672.331,1096.688,1672.331,1099.772z"/>
		</g>
		<ellipse style="fill:#FFFFFF;" cx="1689.284" cy="932.002" rx="47.881" ry="26.922"/>
		<ellipse style="fill:#FFFFFF;" cx="1672.331" cy="991.593" rx="27.731" ry="18.149"/>
		<ellipse style="fill:#FFFFFF;" cx="1606.518" cy="1059.682" rx="11.935" ry="7.567"/>
		<ellipse style="fill:#FFFFFF;" cx="1644.6" cy="1034.964" rx="20.355" ry="12.906"/>
		<g>
			<ellipse style="fill:#FFFFFF;" cx="1633.822" cy="758.856" rx="188.182" ry="138.084"/>
			<g>
				
					<ellipse transform="matrix(0.9239 -0.3827 0.3827 0.9239 -165.8665 683.8448)" style="fill:#E5F0F8;" cx="1636.026" cy="758.856" rx="25.444" ry="25.444"/>
				
					<ellipse transform="matrix(0.9239 -0.3827 0.3827 0.9239 -159.2971 716.8713)" style="fill:#E5F0F8;" cx="1722.328" cy="758.856" rx="25.444" ry="25.444"/>
				
					<ellipse transform="matrix(0.9239 -0.3827 0.3827 0.9239 -172.7713 649.132)" style="fill:#E5F0F8;" cx="1545.317" cy="758.856" rx="25.444" ry="25.444"/>
			</g>
		</g>
	</g>
	<g>
		<g>
			<polygon style="fill:#F2BB16;" points="1904.449,1567.042 1586.259,1778.551 1268.129,1567.042 			"/>
			<polygon style="fill:#F2BB16;" points="1904.449,1567.042 1904.449,1990.061 1268.129,1990.061 1268.129,1567.042 
				1586.259,1778.551 			"/>
			<polygon style="fill:#F2BB16;" points="1268.129,1990.061 1586.259,1778.551 1904.449,1990.061 			"/>
		</g>
		<g>
			<polygon style="fill:#F9ECB8;" points="1928.768,1567.042 1610.578,1778.551 1292.447,1567.042 			"/>
			<polygon style="fill:#F9E181;" points="1928.768,1567.042 1928.768,1990.061 1292.447,1990.061 1292.447,1567.042 
				1610.578,1778.551 			"/>
			<polygon style="fill:#F9ECB8;" points="1292.447,1990.061 1610.578,1778.551 1928.768,1990.061 			"/>
		</g>
		<path style="fill:#40A87B;" d="M1979.098,1567.03c0,13.169-5.037,25.184-13.379,34.208c-9.182,9.916-22.298,16.159-36.936,16.159
			c-27.807,0-50.368-22.56-50.368-50.368c0-19.57,11.175-36.569,27.545-44.859c6.873-3.516,14.586-5.457,22.823-5.457
			C1956.59,1516.714,1979.098,1539.223,1979.098,1567.03z"/>
		<path style="fill:#6ADB6A;" d="M1979.098,1567.03c0,13.169-5.037,25.184-13.379,34.208c-6.873,3.515-14.638,5.509-22.875,5.509
			c-27.807,0-50.368-22.508-50.368-50.315c0-13.221,5.142-25.289,13.484-34.26c6.873-3.516,14.586-5.457,22.823-5.457
			C1956.59,1516.714,1979.098,1539.223,1979.098,1567.03z"/>
	</g>
	<path style="fill:#0775EF;" d="M1988.733,2029.417H306.865c-9.654,0-17.479-7.826-17.479-17.479v-4.332
		c0-9.654,7.826-17.479,17.479-17.479h1681.868c9.654,0,17.479,7.826,17.479,17.479v4.332
		C2006.212,2021.591,1998.386,2029.417,1988.733,2029.417z"/>
	<g>
		<path style="fill:#322A28;" d="M1836.941,1302.645c0,0,18.246-23.254-8.917-34.566c-13.702-5.706-17.582-13.101-13.741-23.466
			c3.841-10.365-0.45-21.613-11.317-27.612s-15.547-23.849-38.23-13.377c0,0-28.606,11.222-27.45,28.698s0.922,15.993-5.181,27.881
			c-6.103,11.889,6.615,26.107,7.091,33.237c0.465,6.967-2.592,9.204-2.592,9.204H1836.941z"/>
		<path style="fill:#F74242;" d="M1659.582,1460.212L1659.582,1460.212c12.587,7.726,29.207,3.749,36.933-8.838l58.075-94.612
			c7.726-12.587,3.749-29.207-8.838-36.933h0c-12.587-7.726-29.207-3.749-36.933,8.838l-58.075,94.612
			C1643.018,1435.866,1646.995,1452.486,1659.582,1460.212z"/>
		<path style="fill:#088CFF;" d="M1837.262,1493.599c0,0,7.825,8.892,10.938,16.145c3.113,7.252-34.05,3.253-34.05,3.253
			l4.051-34.838L1837.262,1493.599z"/>
		<path style="fill:#0775EF;" d="M1589.427,1646.234L1589.427,1646.234c14.515,20.238,42.95,24.921,63.188,10.406l141.362-101.387
			c20.238-14.515,24.921-42.95,10.406-63.188v0c-14.515-20.238-42.95-24.921-63.188-10.406l-141.362,101.387
			C1579.594,1597.561,1574.912,1625.995,1589.427,1646.234z"/>
		<path style="fill:#088CFF;" d="M1630.149,1658.92L1630.149,1658.92c14.515,20.238,42.95,24.921,63.188,10.406l141.361-101.387
			c20.238-14.515,24.921-42.95,10.406-63.188h0c-14.515-20.238-42.95-24.921-63.188-10.406l-141.362,101.387
			C1620.316,1610.247,1615.634,1638.682,1630.149,1658.92z"/>
		<path style="fill:#F74242;" d="M1798.827,1304.89l46.993,22.132c0,0-10.448,120.126-11.529,133.359
			c-1.08,13.233,2.971,33.218,2.971,33.218h-112.617c0,0,1.35-64.816-6.212-82.91c-5.123-12.258-8.642-19.715-5.671-33.758
			c2.971-14.043,12.963-35.109,9.452-59.414l28.897-11.613L1798.827,1304.89z"/>
		<polygon style="fill:#A06753;" points="1593.802,1868.089 1602.456,1837.581 1555.409,1830.785 1551.602,1861.553 		"/>
		<path style="fill:#A06753;" d="M1751.1,1251.272v54.641c0,0,0,0.668,0.133,1.736c0.561,4.46,3.445,15.917,18.294,15.757
			c13.567-0.16,23.048-10.122,27.08-15.356c1.469-1.87,2.217-3.151,2.217-3.151l-6.837-53.627H1751.1z"/>
		<polygon style="fill:#A06753;" points="1752.787,1862.771 1710.875,1870.863 1701.987,1844.277 1748.527,1837.335 		"/>
		<polygon style="fill:#824C3A;" points="1751.111,1305.904 1775.405,1274.886 1751.111,1270.208 		"/>
		<path style="fill:#A06753;" d="M1749.986,1284.405c9.674,3.152,23.084-0.688,32.573-10.653
			c9.489-9.965,30.809-47.274,2.353-64.652c-28.488-17.369-45.311,11.389-46.048,15.84c0,0-0.282,15.693-0.454,26.752
			c-0.065,2.813-0.107,5.314-0.137,7.197c0.01,0.305-0.021,0.585-0.019,0.858
			C1738.118,1268.411,1740.321,1281.285,1749.986,1284.405z"/>
		<path style="fill:#F74242;" d="M1892.716,1475.131L1892.716,1475.131c13.326-6.367,19.02-22.479,12.653-35.806l-47.858-100.168
			c-6.367-13.326-22.479-19.02-35.806-12.653h0c-13.326,6.367-19.02,22.479-12.653,35.806l47.858,100.168
			C1863.277,1475.805,1879.39,1481.498,1892.716,1475.131z"/>
		<path style="fill:#0775EF;" d="M1638.355,1584.399c22.567,8.1,34.294,32.96,26.195,55.527l-56.782,204.351l-69.97-10.881
			l42.552-210.662l0.017,0.003c0.237-4.049,1.022-8.132,2.462-12.143C1590.928,1588.027,1615.788,1576.299,1638.355,1584.399z"/>
		<polygon style="fill:#322A28;" points="1760.074,1894.822 1740.234,1898.32 1736.703,1885.737 1728.155,1900.45 
			1681.349,1908.703 1710.875,1870.863 1752.787,1862.771 		"/>
		<path style="fill:#088CFF;" d="M1657.221,1587.222c23.612-4.163,46.129,11.603,50.292,35.215l53.732,217.992l-67.02,12.939
			l-68.349-204.085l0.016-0.005c-1.803-3.633-3.147-7.567-3.887-11.764C1617.842,1613.901,1633.609,1591.385,1657.221,1587.222z"/>
		
			<line style="fill:none;stroke:#D1DDFF;stroke-width:2.6707;stroke-miterlimit:10;" x1="1724.1" y1="1876.869" x2="1705.375" y2="1880.11"/>
		<path style="fill:#322A28;" d="M1764.735,1203.625c0,0-25.946,0.838-29.276,25.697l13.173,0.639c0,0-0.208-8.525,6.415-12.255
			c0,0-4.666,6.509-3.069,12.881l15.259,1.512c0,0,0.669-9.258-0.149-12.916c0,0,3.687,8.46,3.804,13.513l10.738,2.942
			c0,0-0.071,8.646,3.818,11.751c3.889,3.105,9.082,16.972,9.082,16.972s11.143-30.565,6.218-40.301
			C1795.824,1214.324,1787.01,1198.691,1764.735,1203.625z"/>
		
			<line style="fill:none;stroke:#D1DDFF;stroke-width:2.6707;stroke-miterlimit:10;" x1="1720.711" y1="1884.117" x2="1701.987" y2="1887.357"/>
		<polygon style="fill:#322A28;" points="1590.23,1900.313 1570.339,1897.115 1571.127,1884.07 1558.23,1895.168 1511.304,1887.625 
			1551.602,1861.553 1593.802,1868.089 		"/>
		
			<line style="fill:none;stroke:#D1DDFF;stroke-width:2.6707;stroke-miterlimit:10;" x1="1562.127" y1="1871.562" x2="1543.375" y2="1868.486"/>
		
			<line style="fill:none;stroke:#D1DDFF;stroke-width:2.6707;stroke-miterlimit:10;" x1="1556.551" y1="1877.298" x2="1537.798" y2="1874.223"/>
		<path style="fill:none;stroke:#E5F0F8;stroke-width:1.3353;stroke-miterlimit:10;" d="M1746.564,1519.7
			c0,0-74.406,52.459-88.782,62.463c-14.376,10.004-35.618,21.305-36.443,45.341c-0.825,24.036,23.48,77.47,23.48,77.47"/>
		<path style="fill:#A06753;" d="M1787.136,1254.66c-1.68,5.107-1.638,8.388,2.371,9.707c4.009,1.319,9.562-0.842,11.242-5.949
			c1.68-5.107-0.208-10.316-4.218-11.635C1792.522,1245.464,1788.816,1249.553,1787.136,1254.66z"/>
		
			<path style="fill:none;stroke:#724638;stroke-width:0.6677;stroke-linecap:round;stroke-linejoin:round;stroke-miterlimit:10;" d="
			M1797.298,1251.924c0,0-6.429-0.307-6.988,5.133c0,0,2.107-1.933,5.32-1.361"/>
		<path style="fill:#322A28;" d="M1763.377,1247.281c0.012,2.077-1.067,3.767-2.41,3.775c-1.344,0.008-2.443-1.669-2.456-3.746
			c-0.012-2.077,1.067-3.767,2.41-3.775C1762.265,1243.527,1763.364,1245.204,1763.377,1247.281z"/>
		<path style="fill:#322A28;" d="M1745.622,1245.775c0.013,2.077-1.067,3.767-2.41,3.775c-1.344,0.008-2.443-1.669-2.456-3.746
			c-0.012-2.077,1.067-3.767,2.41-3.775S1745.61,1243.698,1745.622,1245.775z"/>
		<path style="fill:#FFFFFF;" d="M1756.809,1271.398c-2.45,0.85-5.126-0.447-5.976-2.898l8.873-3.078
			C1760.556,1267.873,1759.259,1270.548,1756.809,1271.398z"/>
		<path style="fill:none;stroke:#2C3447;stroke-width:0.9912;stroke-miterlimit:10;" d="M1768.083,1243.079
			c0,0-4.2-5.151-9.049-3.249"/>
		<path style="fill:none;stroke:#2C3447;stroke-width:0.9912;stroke-miterlimit:10;" d="M1745.219,1238.985
			c0,0-3.032-0.546-6.237,2.753"/>
		<path style="fill:none;stroke:#2C3447;stroke-width:0.9912;stroke-miterlimit:10;" d="M1751.898,1246.035
			c0,0-0.176,10.292-6.208,11.588c0,0,1.932,1.737,4.344,2.442"/>
		<path style="fill:#A14C53;" d="M1760.092,1258.608c0.506,1.977,3.887,2.82,7.553,1.882c3.665-0.938,6.227-3.301,5.721-5.278
			c-0.506-1.978-3.887-2.82-7.553-1.883C1762.147,1254.267,1759.585,1256.631,1760.092,1258.608z"/>
		<path style="fill:#A14C53;" d="M1738.274,1258.89c2.204,0.084,3.971-0.607,4.413-1.947c0.575-1.75-1.28-3.936-4.276-5.25
			C1738.346,1254.506,1738.304,1257.006,1738.274,1258.89z"/>
		<path style="fill:#A06753;" d="M1698.956,1444.455c6.445-14.847,0.996-31.648-12.109-37.337l-119.483-33.97
			c-3.734-2.008-7.926-4.467-11.148-6.926c-7.492-5.716-29.672-18.845-31.539-15.637c-1.867,3.209,11.506,15.284,9.618,15.989
			c-1.888,0.705-13.767-5.863-18.609-9.066c-4.842-3.202-14.116-11.738-17.305-10.576c-3.189,1.163-2.743,6.142-2.743,6.142
			s-3.14-3.691-5.066-1.287c-1.926,2.405,1.573,9.344,1.573,9.344s-1.538-2.233-3.003,0.947c-1.465,3.179,7.284,11.714,7.284,11.714
			s-2.253-0.967-3.036,1.597c-0.782,2.563,11.949,12.503,23.034,16.502c9.895,3.569,34.348,9.439,39.487,10.658l107.501,58.557
			C1676.516,1466.794,1692.511,1459.301,1698.956,1444.455z"/>
		
			<line style="fill:none;stroke:#2C3447;stroke-width:1.3727;stroke-miterlimit:10;" x1="1836.482" y1="1419.723" x2="1820.542" y2="1386.36"/>
		<polygon style="fill:#89A5C7;" points="1766.391,1556.949 1808.503,1519.7 1683.941,1519.7 1637.609,1556.949 		"/>
		<path style="fill:none;stroke:#FFFFFF;stroke-width:1.1306;stroke-miterlimit:10;" d="M1788.343,1266.069
			c0.016,2.183,1.799,3.939,3.982,3.923c2.183-0.016,3.939-1.799,3.923-3.982s-1.799-3.94-3.982-3.923
			C1790.083,1262.103,1788.326,1263.886,1788.343,1266.069z"/>
		<g>
			<polygon style="fill:#A5BBD6;" points="1637.609,1556.949 1766.391,1556.949 1732.781,1460.512 1603.999,1460.512 			"/>
			<g>
				<polygon style="fill:#89A5C7;" points="1764.987,1552.268 1807.099,1515.018 1682.537,1515.018 1636.204,1552.268 				"/>
				<polygon style="fill:#A5BBD6;" points="1640.041,1554.815 1768.824,1554.815 1735.214,1458.378 1606.431,1458.378 				"/>
				<polygon style="fill:#89A5C7;" points="1606.431,1458.378 1603.999,1460.512 1732.781,1460.512 1766.391,1556.949 
					1768.824,1554.815 1735.214,1458.378 				"/>
				<polygon style="fill:#586773;" points="1807.099,1515.018 1808.503,1519.7 1766.391,1556.949 1764.76,1552.268 				"/>
			</g>
			<path style="fill:#89A5C7;" d="M1665.486,1509.828c0,3.49,6.393,6.32,14.278,6.32s14.278-2.83,14.278-6.32
				c0-3.49-6.393-6.32-14.278-6.32S1665.486,1506.337,1665.486,1509.828z"/>
		</g>
		<path style="fill:#A06753;" d="M1905.472,1436.543c-7.596-14.292-24.133-20.499-36.748-13.794l-101.02,72.285
			c-3.897,1.67-8.432,3.416-12.364,4.404c-9.139,2.297-33.228,11.465-31.882,14.924c1.347,3.46,19.124,0.524,18.498,2.441
			c-0.625,1.916-13.164,7.114-18.686,8.906c-5.522,1.792-17.977,3.727-19.055,6.945c-1.077,3.219,3.095,5.973,3.095,5.973
			s-4.843,0.156-4.163,3.16c0.681,3.005,8.288,4.592,8.288,4.592s-2.704-0.188-1.131,2.938c1.574,3.127,13.7,1.602,13.7,1.602
			s-2.16,1.16-0.643,3.369c1.517,2.209,17.225-1.555,27.259-7.733c8.957-5.515,28.785-20.983,32.941-24.243l112.785-47.593
			C1908.962,1468.014,1913.068,1450.835,1905.472,1436.543z"/>
		<path style="fill:none;stroke:#2C3447;stroke-width:1.3727;stroke-miterlimit:10;" d="M1718.822,1411.727
			c0,0-8.464-17.804-7.089-27.051c1.375-9.247,8.908-34.233,9.901-41.906"/>
	</g>
	<path style="fill:#E5F0F8;" d="M785.042,641.22c-3.3-4.307-14.655-14.007-21.841-13.145c-6.246,0.749-10.319,10.85-16.612,11.111
		c-4.18,0.173-12.831-3.79-19.088-11.994c0,0-13.402-14.417-12.515-21.409c0.887-6.992,12.375-8.115,12.75-17.625
		c0.201-5.087-7.548-18.405-13.872-22.82c-2.325-1.624-5.426-1.614-7.728,0.041c-5.823,4.186-17.801,14.986-16.347,32.212
		c1.912,22.653,21.884,41.154,21.884,41.154s19.695,22.193,37.264,25.696c19.167,3.822,29.868-4.121,35.222-10.703
		C789.511,647.157,788.342,645.528,785.042,641.22z"/>
	<g>
		<g>
			<g>
				<path style="fill:#BBDBF3;" d="M333.946,939.315l18.564-18.432c0.653-0.61,1.285-1.275,1.896-1.994
					c0.61-0.719,1.154-1.471,1.634-2.255c0.479-0.785,0.86-1.612,1.144-2.484c0.283-0.871,0.424-1.787,0.424-2.745
					c0-1.133-0.207-2.157-0.62-3.072c-0.415-0.915-0.98-1.688-1.7-2.32c-0.719-0.631-1.569-1.121-2.549-1.471
					c-0.981-0.348-2.016-0.523-3.105-0.523c-2.265,0-4.14,0.632-5.621,1.896c-1.482,1.264-2.419,3.007-2.81,5.229l-6.798-0.589
					c0.304-2.047,0.904-3.824,1.797-5.327c0.893-1.503,2.004-2.756,3.334-3.758c1.328-1.002,2.854-1.743,4.575-2.222
					c1.721-0.479,3.583-0.719,5.589-0.719c2.003,0,3.889,0.273,5.653,0.817c1.765,0.546,3.311,1.351,4.642,2.419
					c1.328,1.068,2.374,2.397,3.137,3.987c0.762,1.591,1.144,3.454,1.144,5.589c0,1.526-0.229,2.953-0.687,4.281
					c-0.458,1.33-1.057,2.582-1.797,3.759c-0.741,1.176-1.591,2.288-2.549,3.333c-0.96,1.046-1.961,2.07-3.007,3.072l-15.23,14.707
					h23.27v5.491h-30.33V939.315z"/>
			</g>
			<g>
				<path style="fill:#BBDBF3;" d="M389.245,935.785h-19.741v-6.405l18.433-29.676h7.583v30.59h6.536v5.491h-6.536v10.197h-6.275
					V935.785z M389.245,907.156h-0.13l-14.12,23.139h14.25V907.156z"/>
			</g>
			<g>
				<path style="fill:#BBDBF3;" d="M408.2,948.858l-4.575-1.7l20.917-50.331l4.51,1.7L408.2,948.858z"/>
			</g>
			<g>
				<path style="fill:#BBDBF3;" d="M454.216,905.195h-22.42v-5.491h29.088v5.36l-18.433,40.918h-7.059L454.216,905.195z"/>
			</g>
		</g>
		<g>
			<path style="fill:#BBDBF3;" d="M360.143,999.173c-29.393-14.38-47.653-43.627-47.653-76.33c0-46.828,38.098-84.926,84.926-84.926
				s84.926,38.098,84.926,84.926c0,27.512-13.424,53.441-35.908,69.359l-2.797-3.951c21.204-15.013,33.864-39.464,33.864-65.408
				c0-44.159-35.926-80.085-80.085-80.085c-44.159,0-80.085,35.926-80.085,80.085c0,30.839,17.22,58.421,44.94,71.981
				L360.143,999.173z"/>
		</g>
		<g>
			<polygon style="fill:#BBDBF3;" points="436.828,995.768 460.216,993.453 446.517,974.356 			"/>
		</g>
	</g>
	<path style="fill:#FFFFFF;" d="M1665.87,1299.142c0,11.068-7.801,20.772-19.531,26.244c-6.392,2.99-13.961,4.714-22.064,4.714
		c-4.688,0-9.19-0.585-13.396-1.646l-30.585,13.074l8.765-25.91c-4.039-4.772-6.386-10.418-6.386-16.476
		c0-17.1,18.624-30.958,41.601-30.958c16.431,0,30.637,7.093,37.396,17.389C1664.359,1289.67,1665.87,1294.274,1665.87,1299.142z"/>
	<g>
		<path style="fill:#FFFFFF;" d="M1859.215,1172.439c-8.502-2.244-16.815-4.765-24.1-7.286c-1.308-0.468-2.616-0.935-3.825-0.935
			c-14.944-0.559-27.743-11.582-27.743-31.85c0-20.172,12.328-33.154,29.325-33.154c17.096,0,28.207,13.263,28.207,31.846
			c0,16.161-7.468,26.527-17.933,30.169v0.373c6.259,1.589,13.081,3.084,18.404,4.019L1859.215,1172.439z M1852.484,1131.436
			c0-12.609-6.533-25.591-19.887-25.591c-13.735,0-20.458,12.7-20.366,26.336c-0.091,13.358,7.286,25.405,19.986,25.405
			C1845.206,1157.586,1852.484,1145.817,1852.484,1131.436z"/>
	</g>
	<path style="fill:#E5F0F8;" d="M993.06,607.706l-3.415-1.593l-0.015,0.031l-0.014-0.027c1.772-5.154,2.732-10.685,2.732-16.438
		c0-27.942-22.651-50.589-50.589-50.589c-27.942,0-50.589,22.647-50.589,50.589c0,5.768,0.964,11.31,2.743,16.474v0.004l-3.329,1.55
		c-0.258,0.12-0.367,0.427-0.247,0.685l6.88,14.758c0.12,0.258,0.427,0.371,0.685,0.251l3.413-1.595l0.032,0.067l1.705,0.378
		l6.615,1.472l0.353,0.078c0,0,1.49,0.985,2.503,0.512l4.518-2.107c1.027-0.477,1.472-1.698,0.992-2.725L906.574,594.9
		c-0.48-1.027-1.701-1.472-2.729-0.992l-4.518,2.107c-1.027,0.48-1.218,2.248-1.218,2.248l-1.648,3.173
		c-0.971-3.756-1.49-7.695-1.49-11.758c0-25.838,20.949-46.788,46.788-46.788c25.838,0,46.784,20.949,46.784,46.788
		c0,4.003-0.501,7.886-1.447,11.592l-1.564-3.007c0,0-0.194-1.772-1.214-2.248l-4.518-2.107c-1.027-0.48-2.249-0.035-2.729,0.992
		l-11.461,24.578c-0.477,1.027-0.032,2.249,0.995,2.725l4.518,2.107c1.027,0.48,2.503-0.512,2.503-0.512l0.187-0.042
		c-7.123,6.703-16.347,11.197-26.576,12.39c-0.515-1.034-1.553-1.761-2.778-1.839l-10.459-0.646
		c-1.267-0.078-2.404,0.558-3.032,1.553c-0.325,0.515-0.512,1.122-0.512,1.779v3.17c0,1.924,1.624,3.449,3.544,3.329l10.459-0.646
		c1.617-0.099,2.905-1.338,3.103-2.905c13.152-1.504,24.772-8.048,32.877-17.656l1.86-0.413l0.031-0.065l3.413,1.591
		c0.258,0.12,0.564,0.009,0.685-0.249l6.882-14.758C993.429,608.133,993.318,607.826,993.06,607.706z M989.604,606.201l-0.051,0.109
		v-0.003L989.604,606.201z M989.547,606.323l-0.002,0.003v0C989.546,606.325,989.547,606.323,989.547,606.323z"/>
	<g>
		
			<ellipse transform="matrix(0.0192 -0.9998 0.9998 0.0192 -218.8696 1660.1122)" style="fill:#40A87B;" cx="736.709" cy="941.612" rx="76.587" ry="76.587"/>
		
			<ellipse transform="matrix(0.7071 -0.7071 0.7071 0.7071 -447.0366 803.9819)" style="fill:#6ADB6A;" cx="746.974" cy="941.612" rx="76.587" ry="76.587"/>
		<path style="fill:#FFFFFF;" d="M787.288,959.871c-2.677-3.494-11.889-11.362-17.718-10.664c-5.067,0.608-8.371,8.802-13.476,9.013
			c-3.391,0.141-10.409-3.074-15.485-9.729c0,0-10.872-11.695-10.153-17.367c0.72-5.672,10.039-6.583,10.343-14.298
			c0.163-4.127-6.123-14.93-11.253-18.512c-1.886-1.317-4.402-1.31-6.27,0.033c-4.724,3.396-14.44,12.157-13.261,26.131
			c1.551,18.377,17.753,33.386,17.753,33.386s15.978,18.004,30.229,20.846c15.549,3.101,24.23-3.343,28.573-8.683
			C790.914,964.687,789.966,963.365,787.288,959.871z"/>
	</g>
	<g>
		<rect x="317.754" y="534.157" style="fill:#E5F0F8;" width="52.733" height="52.732"/>
		<rect x="317.754" y="597.436" style="fill:#E5F0F8;" width="52.733" height="52.732"/>
		<rect x="317.754" y="660.715" style="fill:#E5F0F8;" width="52.733" height="52.732"/>
		<polyline style="fill:none;stroke:#FFFFFF;stroke-width:3.3463;stroke-miterlimit:10;" points="320.815,563.415 338.166,578.724 
			365.723,544.023 		"/>
		<polyline style="fill:none;stroke:#FFFFFF;stroke-width:3.3463;stroke-miterlimit:10;" points="320.815,626.354 338.166,641.663 
			365.723,606.962 		"/>
		
			<line style="fill:none;stroke:#FFFFFF;stroke-width:3.3463;stroke-miterlimit:10;" x1="322.176" y1="665.818" x2="363.682" y2="707.324"/>
		
			<line style="fill:none;stroke:#FFFFFF;stroke-width:3.3463;stroke-miterlimit:10;" x1="363.682" y1="665.818" x2="322.176" y2="707.324"/>
		<rect x="389.198" y="534.157" style="fill:#E5F0F8;" width="195.24" height="9.866"/>
		<rect x="389.198" y="551.508" style="fill:#E5F0F8;" width="195.24" height="9.866"/>
		<rect x="389.198" y="568.858" style="fill:#E5F0F8;" width="108.646" height="9.866"/>
		<rect x="389.198" y="597.436" style="fill:#E5F0F8;" width="195.24" height="9.866"/>
		<rect x="389.198" y="614.787" style="fill:#E5F0F8;" width="195.24" height="9.866"/>
		<rect x="389.198" y="632.137" style="fill:#E5F0F8;" width="108.646" height="9.866"/>
		<rect x="389.198" y="660.715" style="fill:#E5F0F8;" width="195.24" height="9.866"/>
		<rect x="389.198" y="678.066" style="fill:#E5F0F8;" width="195.24" height="9.866"/>
		<rect x="389.198" y="695.416" style="fill:#E5F0F8;" width="108.646" height="9.866"/>
	</g>
</g>
</svg>
